<?xml version="1.0" encoding="utf-8"?>
<!-- Generator: Adobe Illustrator 22.0.0, SVG Export Plug-In . SVG Version: 6.00 Build 0)  -->
<svg version="1.1" xmlns="http://www.w3.org/2000/svg" xmlns:xlink="http://www.w3.org/1999/xlink" x="0px" y="0px"
	 viewBox="0 0 500 500" style="enable-background:new 0 0 500 500;" xml:space="preserve">
<style type="text/css">
	.st0{display:none;}
	.st1{display:inline;fill:#37474F;}
	.st2{fill:#263238;}
	.st3{fill:#37474F;}
	.st4{fill:#455A64;}
	.st5{opacity:5.000000e-02;}
	.st6{opacity:0.1;}
	.st7{opacity:0.3;}
	.st8{opacity:0.2;}
	.st9{fill:#03A688;}
	.st10{opacity:0.8;fill:#FFFFFF;}
	.st11{opacity:0.5;fill:#FFFFFF;}
	.st12{opacity:0.6;fill:#FFFFFF;}
	.st13{fill:#FAFAFA;}
	.st14{fill:#EBEBEB;}
	.st15{opacity:0.45;}
	.st16{display:inline;fill:#263238;}
	.st17{display:inline;}
	.st18{fill:#BA68C8;}
	.st19{opacity:0.15;}
	.st20{opacity:0.9;}
	.st21{fill:#FFFFFF;}
	.st22{opacity:0.5;}
	.st23{fill:#0C6352;}
	.st24{fill:#0E7763;}
	.st25{display:none;opacity:0.2;}
	.st26{fill:#5C737C;}
	.st27{opacity:0.3;fill:#FFFFFF;}
	.st28{fill:#FFA8A7;}
	.st29{fill:#B16668;}
	.st30{fill:#F28F8F;}
	.st31{fill:#E0E0E0;}
	.st32{fill:#F5F5F5;}
</style>
<g id="Background_1_" class="st0">
	<path id="Background" class="st1" d="M140.4,36.9c-65,32.8-117.8,86.8-125.9,199.3C7,339.5,31.3,402.7,139.5,455.1
		C249.1,508.3,380,487.2,445,421.5c58.6-59.2,67.4-172.5,0.1-283.8C362.1,0.8,205.4,4.1,140.4,36.9z"/>
</g>
<g id="Shadows">
	<polygon id="Shadow_97_" class="st2" points="136.8,343.1 87.8,314.7 32.6,346.7 81.5,375 	"/>
	<polygon id="Shadow_17_" class="st2" points="383.2,208.6 329.6,177.5 257.3,219.3 310.9,250.3 	"/>
	<path id="Shadow_1_" class="st2" d="M326.2,450.4l133.4-77c2.3-1.3,2.3-3.5,0-4.8L219.8,230.1c-2.3-1.3-6.1-1.3-8.4,0L78,307.1
		c-2.3,1.3-2.3,3.5,0,4.8l239.8,138.4C320.1,451.8,323.9,451.8,326.2,450.4z"/>
</g>
<g id="Drawer">
	<g id="Drawer_3_">
		<g id="Drawer_4_">
			<g id="Cabinet_3_">
				<g id="XMLID_14833_">
					<polygon id="XMLID_14851_" class="st2" points="309.5,244.3 265.5,218.8 265.5,112.1 309.5,137.5 					"/>
					<polygon id="XMLID_14849_" class="st3" points="309.5,137.5 372.4,101.2 372.4,207.9 309.5,244.3 					"/>
					<path id="XMLID_938_" class="st2" d="M372.4,101.2l0.2,26.7l0.1,26.7l0.1,26.7c0,8.9,0,17.8,0,26.7l0,0.2l-0.2,0.1L341,226.3
						l-15.8,9l-15.8,8.9l15.6-9.2l15.7-9.1l31.4-18.2l-0.2,0.3c0-8.9-0.1-17.8,0-26.7l0.1-26.7l0.1-26.7L372.4,101.2z"/>
					<polygon id="XMLID_808_" class="st4" points="372.4,101.2 309.5,137.5 265.5,112.1 328.3,75.8 					"/>
				</g>
				<g id="XMLID_1203_">
					<g id="XMLID_1210_">
						<polygon id="XMLID_807_" class="st2" points="315.8,206.1 366.1,177.1 366.1,201.6 367.2,202.3 316.9,231.3 315.8,230.7 
													"/>
					</g>
					<g id="XMLID_1208_">
						<polygon id="XMLID_1209_" class="st4" points="316.9,206.8 367.2,177.7 367.2,202.3 316.9,231.3 						"/>
					</g>
					<g id="XMLID_1206_" class="st5">
						<polygon id="XMLID_1207_" points="316.9,206.8 367.2,177.7 367.2,202.3 316.9,231.3 						"/>
					</g>
					<g id="XMLID_1204_">
						<path id="XMLID_1205_" class="st2" d="M336.6,201.3l8.6-4.9c1.1-0.6,2-0.3,2,0.7c0,1-0.9,2.3-2,3l-8.6,4.9
							c-1.1,0.6-2,0.3-2-0.7C334.6,203.3,335.5,202,336.6,201.3z"/>
					</g>
				</g>
				<g id="XMLID_1195_">
					<g id="XMLID_1201_">
						<polygon id="XMLID_1202_" class="st2" points="315.8,174.3 366.1,145.3 366.1,169.8 367.2,170.5 316.9,199.5 315.8,198.9 
													"/>
					</g>
					<g id="XMLID_1199_">
						<polygon id="XMLID_1200_" class="st4" points="316.9,175 367.2,145.9 367.2,170.5 316.9,199.5 						"/>
					</g>
					<g id="XMLID_1197_" class="st5">
						<polygon id="XMLID_1198_" points="316.9,175 367.2,145.9 367.2,170.5 316.9,199.5 						"/>
					</g>
					<g id="XMLID_14835_">
						<path id="XMLID_1196_" class="st2" d="M336.6,169.5l8.6-4.9c1.1-0.6,2-0.3,2,0.7c0,1-0.9,2.3-2,3l-8.6,4.9
							c-1.1,0.6-2,0.3-2-0.7C334.6,171.5,335.5,170.2,336.6,169.5z"/>
					</g>
				</g>
				<polygon id="XMLID_806_" class="st2" points="315.8,142.5 366.1,113.5 366.1,138 315.8,167 				"/>
			</g>
			<g id="Drawer_5_">
				<g>
					<g id="XMLID_1192_">
						<polygon id="XMLID_1193_" class="st3" points="391,132.7 363.1,116.6 363.1,137 391,153.1 						"/>
					</g>
					<g id="XMLID_1102_" class="st6">
						<polygon id="XMLID_1191_" points="391,132.7 363.1,116.6 363.1,137 391,153.1 						"/>
					</g>
					<path class="st2" d="M316.7,163.8l46.4-26.8l27.9,16.1c0,0-46.4,27.1-46.4,26.8C344.6,179.6,316.7,163.8,316.7,163.8z"/>
					<g>
						<g>
							<g>
								<g>
									<path class="st3" d="M332.9,143.7l0,3.3c0,0.5,0.3,1,0.7,1.3l24,13.9c0.6,0.3,1.1,0.4,1.4,0.2l25.5-14.7
										c0.3-0.2,0.5-0.6,0.5-1.1c0-1.2-0.9-2.6-1.9-3.2L358.3,129L332.9,143.7z"/>
								</g>
								<g class="st7">
									<path d="M332.9,143.7l0,3.3c0,0.5,0.3,1,0.7,1.3l24,13.9c0.6,0.3,1.1,0.4,1.4,0.2l25.5-14.7c0.3-0.2,0.5-0.6,0.5-1.1
										c0-1.2-0.9-2.6-1.9-3.2L358.3,129L332.9,143.7z"/>
								</g>
								<path class="st8" d="M357.6,158l-24.7-14.3l0,3.3c0,0.5,0.3,1,0.7,1.3l24,13.9c1.1,0.6,1.9,0.2,1.9-1
									C359.6,160.1,358.7,158.6,357.6,158z"/>
								<path class="st8" d="M356.5,158.7c0.4,0.2,0.6,0.7,0.6,1.1c0,0.4-0.3,0.5-0.6,0.3l-23.6-13.6v-1.4L356.5,158.7z"/>
							</g>
						</g>
						<g>
							<g>
								<path class="st3" d="M385,139.2l0,3.3c0,0.5-0.3,1-0.7,1.3l-24,13.9c-0.6,0.3-1.1,0.4-1.4,0.2l-25.5-14.7
									c-0.3-0.2-0.5-0.6-0.5-1.1c0-1.2,0.9-2.6,1.9-3.2l24.7-14.3L385,139.2z"/>
							</g>
							<path class="st8" d="M360.3,153.4l24.7-14.3l0,3.3c0,0.5-0.3,1-0.7,1.3l-24,13.9c-1.1,0.6-1.9,0.2-1.9-1
								C358.3,155.5,359.2,154.1,360.3,153.4z"/>
							<path class="st8" d="M361.4,154.2c-0.4,0.2-0.6,0.7-0.6,1.1s0.3,0.5,0.6,0.3L385,142v-1.4L361.4,154.2z"/>
						</g>
						<g>
							<g>
								<path class="st3" d="M332.9,134.3l0,3.3c0,0.5,0.3,1,0.7,1.3l24,13.9c0.6,0.3,1.1,0.4,1.4,0.2l25.5-14.7
									c0.3-0.2,0.5-0.6,0.5-1.1c0-1.2-0.9-2.6-1.9-3.2l-24.7-14.3L332.9,134.3z"/>
							</g>
							<path class="st3" d="M357.6,148.6l-24.7-14.3l0,3.3c0,0.5,0.3,1,0.7,1.3l24,13.9c1.1,0.6,1.9,0.2,1.9-1
								C359.6,150.7,358.7,149.2,357.6,148.6z"/>
							<path class="st8" d="M357.6,148.6l-24.7-14.3l0,3.3c0,0.5,0.3,1,0.7,1.3l24,13.9c1.1,0.6,1.9,0.2,1.9-1
								C359.6,150.7,358.7,149.2,357.6,148.6z"/>
							<path class="st8" d="M356.5,149.3c0.4,0.2,0.6,0.7,0.6,1.1c0,0.4-0.3,0.5-0.6,0.3l-23.6-13.6v-1.4L356.5,149.3z"/>
						</g>
					</g>
					<polygon class="st4" points="365,115.5 363.1,116.6 391,132.7 393,131.6 					"/>
				</g>
				<g>
					<g id="XMLID_918_">
						<polygon id="XMLID_919_" class="st3" points="344.6,159.5 316.7,143.4 316.7,163.8 344.6,179.9 						"/>
					</g>
					<polygon class="st4" points="318.7,142.3 316.7,143.4 344.6,159.5 346.6,158.4 					"/>
				</g>
				<g>
					<polygon id="XMLID_912_" class="st4" points="344.1,157.8 394.4,128.7 394.4,153.3 344.1,182.3 					"/>
					<path id="XMLID_910_" class="st2" d="M363.8,152.3l8.6-4.9c1.1-0.6,2-0.3,2,0.7c0,1-0.9,2.3-2,3l-8.6,4.9c-1.1,0.6-2,0.3-2-0.7
						C361.8,154.3,362.7,153,363.8,152.3z"/>
					<polygon id="XMLID_805_" class="st2" points="344.1,157.8 342.4,156.8 342.4,181.4 344.1,182.3 					"/>
					<polygon id="XMLID_804_" class="st3" points="342.4,156.8 392.7,127.8 394.4,128.7 344.1,157.8 					"/>
				</g>
			</g>
		</g>
		<g id="Pot_9_">
			<g id="XMLID_847_">
				<path id="XMLID_848_" class="st2" d="M357.2,93.4c4.1,2.4,4.1,6.2,0,8.5c-4.1,2.4-10.7,2.4-14.8,0c-4.1-2.4-4.1-6.2,0-8.5
					C346.4,91,353.1,91,357.2,93.4z"/>
			</g>
			<g id="XMLID_838_">
				<path id="XMLID_846_" class="st3" d="M343.3,98.2c-3.6-3.6-5.6-12.7-2.2-15.6h17.6c3.5,2.9,1.4,11.9-2.2,15.6
					c0,0-0.1,0.1-0.1,0.1c0,0-0.1,0.1-0.1,0.1c-0.1,0.1-0.2,0.2-0.3,0.3c0,0-0.1,0-0.1,0.1c-0.1,0.1-0.2,0.1-0.3,0.2
					c-0.2,0.1-0.3,0.2-0.5,0.3c-2.9,1.7-7.7,1.7-10.6,0h0h0c-0.2-0.1-0.3-0.2-0.5-0.3c-0.1-0.1-0.2-0.1-0.2-0.2c0,0-0.1-0.1-0.1-0.1
					c-0.1-0.1-0.2-0.2-0.3-0.3C343.4,98.3,343.4,98.3,343.3,98.2C343.3,98.2,343.3,98.2,343.3,98.2z"/>
				<path id="XMLID_845_" class="st4" d="M357.2,81.4c4,2.3,4,6.1,0,8.4c-4,2.3-10.6,2.3-14.6,0c-4-2.3-4-6.1,0-8.4
					C346.6,79.1,353.2,79.1,357.2,81.4z"/>
				<path id="XMLID_844_" class="st3" d="M354.3,83.1c2.4,1.4,2.4,3.7,0,5.1c-2.4,1.4-6.4,1.4-8.9,0c-2.4-1.4-2.4-3.7,0-5.1
					C347.9,81.7,351.9,81.7,354.3,83.1z"/>
				<path id="XMLID_839_" class="st2" d="M345.5,85.5c2.4-1.4,6.4-1.4,8.9,0c0.7,0.4,1.2,0.9,1.5,1.3c-0.3,0.5-0.8,1-1.5,1.3
					c-2.4,1.4-6.4,1.4-8.9,0c-0.7-0.4-1.2-0.9-1.5-1.3C344.3,86.4,344.8,85.9,345.5,85.5z"/>
				<path class="st2" d="M368.3,86.4c0.1-0.9-0.1-1.8,0-2.6c0.1-0.7,0.4-1.3,0.7-1.9c0.5-1.3,0.7-2.9-0.1-4.2
					c-0.5-0.8-1.2-1.3-1.8-2c-0.9-1-1.6-2.2-2.7-3c-1.1-0.8-2.5-1.2-3.9-1.1c-1.9,0.1-3.7,1.1-4.7,2.6c-0.3,0.5-0.6,1-1,1.5
					c-1.1,1.2-2.9,1.5-3.6,2.9c-0.5,0.9-0.4,2.1-0.6,3.1c-0.2,0.7-0.5,1.4-0.7,2.1c-0.3,1.4,0.3,2.6,1.5,3.3c1,0.6,2.2,0.5,2.7-0.7
					c0.2-0.5,0.3-1.1,0.5-1.6c0.4-1.3,1.3-2.5,2.5-3.1c0.7-0.4,1.5-0.6,1.9-1.3c0.3-0.5,0.3-1,0.5-1.5c0.4-1.2,1.9-1.8,3-1.4
					c0.7,0.3,1.2,0.8,1.9,1.2c0.4,0.3,0.9,0.5,1.3,0.8c1.2,1,0.3,2.8,0.5,4.1c0.2,1,1,1.9,1,2.9c0,0.4,0,0.9,0.4,1
					C368,87.7,368.2,86.8,368.3,86.4z"/>
				<path class="st2" d="M332.1,86.4c-0.1-0.9,0.1-1.8,0-2.6c-0.1-0.7-0.4-1.3-0.7-1.9c-0.5-1.3-0.7-2.9,0.1-4.2
					c0.5-0.8,1.2-1.3,1.8-2c0.9-1,1.6-2.2,2.7-3c1.1-0.8,2.5-1.2,3.9-1.1c1.9,0.1,3.7,1.1,4.7,2.6c0.3,0.5,0.6,1,1,1.5
					c1.1,1.2,2.9,1.5,3.6,2.9c0.5,0.9,0.4,2.1,0.6,3.1c0.2,0.7,0.5,1.4,0.7,2.1c0.3,1.4-0.3,2.6-1.5,3.3c-1,0.6-2.2,0.5-2.7-0.7
					c-0.2-0.5-0.3-1.1-0.5-1.6c-0.4-1.3-1.3-2.5-2.5-3.1c-0.7-0.4-1.5-0.6-1.9-1.3c-0.3-0.5-0.3-1-0.5-1.5c-0.4-1.2-1.9-1.8-3-1.4
					c-0.7,0.3-1.2,0.8-1.9,1.2c-0.4,0.3-0.9,0.5-1.3,0.8c-1.2,1-0.3,2.8-0.5,4.1c-0.2,1-1,1.9-1,2.9c0,0.4,0,0.9-0.4,1
					C332.5,87.7,332.2,86.8,332.1,86.4z"/>
				<path class="st2" d="M351.7,64.6c-1.1,0.6-2,1.6-2.3,2.7c-0.2,0.9-0.2,1.6-0.8,2.4c-0.4,0.7-1.1,1.3-1.4,2.1
					c-0.5,1.1,0,2.4-0.1,3.6c-0.1,1.5-1.2,3-0.6,4.6c0.5,1.3,1.3,2.6,1.4,4c0.1,0.7,0,1.5,0.2,2.2c0.2,0.7,0.8,1.3,1.5,1.3
					c0.6,0,1-0.5,1.4-0.9c0.4-0.4,0.7-0.9,0.9-1.5c0.6-1.6-0.3-3.6,0.4-5.1c0.2-0.5,0.6-0.9,0.7-1.5c0.3-0.8,0-1.4-0.2-2.2
					c-0.2-0.8,0.2-1.6,0.6-2.3c0.4-0.8,1-1.5,1.1-2.3c0.1-0.8,0-1.5,0-2.3c0-0.7,0.3-1.6,0.9-2c0.6-0.4,1.4,0.1,2.1,0
					c1-0.1,2-0.1,2.6,0.8c0.1,0.1,0.2,0.2,0.3,0.2c0.1,0,0.1-0.1,0.1-0.2c0.1-0.7-0.1-1.5-0.6-2c-0.2-0.2-0.5-0.3-0.8-0.5
					c-0.5-0.3-0.9-0.7-1.3-1c-1-0.8-2.5-0.7-3.7-0.7C353.4,63.9,352.5,64.2,351.7,64.6z"/>
			</g>
		</g>
		<g id="Picture_12_">
			<polygon id="Shadow" class="st2" points="295.6,120.6 279.9,111.5 311.4,93.4 327.1,102.4 			"/>
			<g id="Frame_12_">
				<polygon id="XMLID_831_" class="st2" points="296,114.5 297.3,115.1 321.6,101.1 320.3,100.5 				"/>
				<g id="XMLID_825_">
					<g id="XMLID_826_">
						<g id="XMLID_828_">
							<polygon id="XMLID_830_" class="st4" points="320.3,100.5 297.2,113.8 293.8,79.2 316.9,65.9 							"/>
						</g>
					</g>
				</g>
				<path id="XMLID_802_" class="st3" d="M320.1,61.5l-28.8,16.6l4,40.8l28.8-16.6L320.1,61.5z M321.6,101.1l-24.3,14l-3.5-35.9
					l24.3-14L321.6,101.1z"/>
				<polygon id="XMLID_795_" class="st2" points="321.6,101.1 320.3,100.5 316.9,65.9 318.1,65.2 				"/>
				<polygon id="XMLID_698_" class="st4" points="320.1,61.5 318.8,60.9 290,77.5 291.4,78.1 				"/>
				<polygon id="XMLID_697_" class="st2" points="290,77.5 291.4,78.1 295.3,118.8 294,118.2 				"/>
			</g>
			<g id="Land_14_">
				<polygon class="st3" points="319.3,99.8 298,112.1 297.4,106.3 301.4,89.2 305.1,95 304.4,99.9 310.7,81.8 318.7,94 				"/>
				<path class="st3" d="M301,82c-0.9,0.5-1.5,1.7-1.4,2.6c0.1,1,0.9,1.3,1.7,0.8c0.9-0.5,1.5-1.7,1.4-2.6
					C302.7,81.8,301.9,81.5,301,82z"/>
			</g>
		</g>
	</g>
</g>
<g id="Pictures">
	<g id="Picture_10_">
		<g id="Frame_10_">
			<polygon id="XMLID_358_" class="st2" points="144.8,107.6 146.3,108.5 176.2,91.2 174.7,90.4 			"/>
			<g id="XMLID_345_">
				<g id="XMLID_355_">
					<g id="XMLID_356_">
						<polygon id="XMLID_357_" class="st4" points="174.7,90.4 146.3,106.8 146.3,77 174.7,60.6 						"/>
					</g>
				</g>
			</g>
			<path id="XMLID_335_" class="st3" d="M178.9,55l-35.4,20.4v37.8l35.4-20.4L178.9,55z M176.2,91.2l-29.9,17.3l0-31.5l29.9-17.3
				L176.2,91.2z"/>
			<polygon id="XMLID_328_" class="st2" points="176.2,91.2 174.7,90.4 174.7,60.6 176.2,59.8 			"/>
			<polygon id="XMLID_302_" class="st4" points="178.9,55 177.4,54.2 142.1,74.6 143.5,75.4 			"/>
			<polygon id="XMLID_301_" class="st2" points="142.1,74.6 143.5,75.4 143.5,113.2 142.1,112.4 			"/>
		</g>
		<g id="Land_11_">
			<polygon class="st3" points="173.6,89.5 147.4,104.6 147.4,97 154,81.9 158,85.7 156.6,92 165.6,72.7 173.6,81.9 			"/>
			<path class="st3" d="M157.8,74.6c-1.1,0.6-1.9,2.1-1.9,3.4c0,1.2,0.9,1.7,1.9,1.1c1.1-0.6,1.9-2.1,1.9-3.4S158.9,74,157.8,74.6z"
				/>
		</g>
	</g>
	<g id="Picture_11_">
		<g id="Frame_11_">
			<polygon id="XMLID_937_" class="st2" points="99.5,150.1 101,150.7 130.2,128.9 128.7,128.3 			"/>
			<g id="XMLID_933_">
				<g id="XMLID_934_">
					<g id="XMLID_935_">
						<polygon id="XMLID_936_" class="st4" points="128.7,128.3 100.9,149 98.9,120.8 126.7,100.1 						"/>
					</g>
				</g>
			</g>
			<path id="XMLID_418_" class="st3" d="M130.6,94L96,119.8l2.5,35.9l34.6-25.8L130.6,94z M130.2,128.9L101,150.7l-2.1-29.9
				L128.1,99L130.2,128.9z"/>
			<polygon id="XMLID_416_" class="st2" points="130.2,128.9 128.7,128.3 126.7,100.1 128.1,99 			"/>
			<polygon id="XMLID_412_" class="st4" points="130.6,94 129.3,93.2 94.7,119 96,119.8 			"/>
			<polygon id="XMLID_373_" class="st2" points="94.7,119 96,119.8 98.5,155.7 97.2,154.9 			"/>
		</g>
		<g id="Land_13_">
			<polygon class="st3" points="127.5,127.7 101.9,146.8 101.4,139.6 107,124.1 111.4,126.9 110.3,133.2 118.3,113.2 127,120.5 			
				"/>
			<path class="st3" d="M110.4,116.4c-1,0.8-1.8,2.4-1.7,3.5c0.1,1.2,1,1.5,2,0.7c1-0.8,1.8-2.4,1.7-3.5
				C112.4,116,111.5,115.6,110.4,116.4z"/>
		</g>
	</g>
</g>
<g id="Bed_2_">
	<g id="Bed_1_">
		<g id="Bed">
			<g>
				<g>
					<path class="st4" d="M105.9,320.2l-15.6-9c-1.6-0.9-2.8-3.1-2.8-4.9v-91.6c0-1.8,1.3-4,2.8-4.9l127.1-73.4
						c1.6-0.9,4.1-0.9,5.7,0l15.6,9c1.6,0.9,2.8,3.1,2.8,4.9v91.6c0,1.8-1.3,4-2.8,4.9l-127.1,73.4
						C110,321.1,107.4,321.1,105.9,320.2z"/>
					<path class="st2" d="M241.4,150.4l0,91.6c0,1.8-1.3,4-2.8,4.9l-127.1,73.4c-1.6,0.9-2.8,0.2-2.8-1.6l0-91.6
						c0-1.8,1.3-4,2.8-4.9l127.1-73.4C240.2,147.8,241.4,148.6,241.4,150.4z"/>
					<path class="st3" d="M110.9,320.5c-1.5,0.6-3.6,0.5-5-0.3l-15.6-9c-1.6-0.9-2.8-3.1-2.8-4.9v-91.6c0-0.9,0.3-1.9,0.8-2.8
						l21.2,12.3c-0.5,0.9-0.8,1.9-0.8,2.8v91.6C108.7,320.1,109.6,320.9,110.9,320.5z"/>
				</g>
				<g>
					<path class="st4" d="M335.6,409.9l-13.1-7.6c-0.8-0.5-2-0.5-2.8,0l-13.1,7.6c-0.4,0.2-0.7,0.6-1,1.1l0,0c0,0.1-0.1,0.2-0.1,0.3
						c-0.2,0.4-0.3,0.8-0.3,1.1l0,21.3v0c0,0.9,0.6,1.9,1.3,2.4c0,0,0.1,0.1,0.1,0.1l13.1,7.6c0,0,0,0,0,0v0c0.1,0,0.1,0,0.2,0.1
						c0.2,0.1,0.3,0.1,0.5,0.2c0.2,0.1,0.5,0.1,0.8,0.1c0.5,0,1-0.1,1.4-0.3l13.1-7.6c0.8-0.5,1.4-1.5,1.4-2.5l0-21.3
						C337,411.5,336.4,410.4,335.6,409.9z"/>
					<path class="st3" d="M322.5,443.7l13.1-7.6c0.8-0.5,1.4-1.5,1.4-2.5l0-21.3c0-0.9-0.6-1.3-1.4-0.8l-13.1,7.6
						c-0.8,0.5-1.4,1.5-1.4,2.5l0,21.3C321.1,443.7,321.7,444.1,322.5,443.7z"/>
				</g>
				<g>
					<path class="st4" d="M447.1,345.6L434,338c-0.8-0.5-2-0.5-2.8,0l-13.1,7.6c-0.4,0.2-0.7,0.6-1,1.1l0,0c0,0.1-0.1,0.2-0.1,0.3
						c-0.2,0.4-0.3,0.8-0.3,1.1l0,21.3v0c0,0.9,0.6,1.9,1.3,2.4c0,0,0.1,0.1,0.1,0.1l13.1,7.6c0,0,0,0,0,0l0,0c0.1,0,0.1,0,0.2,0.1
						c0.2,0.1,0.3,0.1,0.5,0.2c0.2,0.1,0.5,0.1,0.8,0.1c0.5,0,1-0.1,1.4-0.3l13.1-7.6c0.8-0.5,1.4-1.5,1.4-2.5l0-21.3
						C448.5,347.1,447.9,346,447.1,345.6z"/>
					<path class="st3" d="M434,379.3l13.1-7.6c0.8-0.5,1.4-1.5,1.4-2.5l0-21.3c0-0.9-0.6-1.3-1.4-0.8l-13.1,7.6
						c-0.8,0.5-1.4,1.5-1.4,2.5l0,21.3C432.6,379.4,433.2,379.7,434,379.3z"/>
				</g>
				<g>
					<path class="st4" d="M235.8,217.8l-121.4,70.1c-3.1,1.8-5.7,6.2-5.7,9.8l0,5.4c0,3.6,2.5,8,5.7,9.8l201.1,116.1
						c3.1,1.8,8.2,1.8,11.3,0l121.4-70.1c3.1-1.8,5.7-6.2,5.7-9.8l0-5.4c0-3.6-2.5-8-5.7-9.8L247.1,217.8
						C244,216,238.9,216,235.8,217.8z"/>
					<path class="st2" d="M453.8,343.7v5.4c0,3.6-2.5,8-5.7,9.8l-121.4,70.1c-1.6,0.9-3.6,1.3-5.7,1.3v-18.4c2.1,0,4.1-0.4,5.7-1.3
						l121.4-70.1c2.9-1.7,3.1-4.4,0.6-6.2C451.6,336.2,453.8,340.3,453.8,343.7z"/>
					<path class="st3" d="M114.4,294.4c-3-1.7-3.1-4.4-0.4-6.2c-2.9,1.9-5.2,6.1-5.2,9.5l0,5.4c0,3.6,2.5,8,5.7,9.8l201.1,116.1
						c1.6,0.9,3.6,1.4,5.7,1.4v-18.4c-2.1,0-4.1-0.4-5.7-1.3L114.4,294.4z"/>
				</g>
				<g>
					<path class="st9" d="M235.8,187.2l-121.4,70.1c-3.1,1.8-5.7,6.2-5.7,9.8l0,11.5c0,3.6,2.5,8,5.7,9.8l201.1,116.1
						c3.1,1.8,8.2,1.8,11.3,0l121.4-70.1c3.1-1.8,5.7-6.2,5.7-9.8l0-11.5c0-3.6-2.5-8-5.7-9.8L247.1,187.2
						C244,185.4,238.9,185.4,235.8,187.2z"/>
					<path class="st10" d="M114.4,263.8l201.1,116.1c3.1,1.8,8.2,1.8,11.3,0l121.4-70.1c3.1-1.8,3.1-4.7,0-6.5L247.1,187.2
						c-3.1-1.8-8.2-1.8-11.3,0l-121.4,70.1C111.2,259.1,111.2,262,114.4,263.8z"/>
					<path class="st5" d="M191.7,259.4c0,0-14.8,5.9-19.3,7.3c-4.5,1.4-7.6,1.8-10.8,0l-26.4-15.3c-3.1-1.8-3.1-4.3,0-6.1l79.4-46.1
						l32.2,18.5c3.1,1.8,3.8,2.6,0,6.3C226,243.9,201.5,255.6,191.7,259.4z"/>
					<path class="st11" d="M453.8,313.1v11.5c0,3.6-2.5,8-5.7,9.8l-121.4,70.1c-1.6,0.9-3.6,1.3-5.7,1.3v-24.5
						c2.1,0,4.1-0.4,5.7-1.3l121.4-70.1c2.9-1.7,3.1-4.4,0.6-6.2C451.6,305.6,453.8,309.7,453.8,313.1z"/>
					<path class="st12" d="M114.4,263.8c-3-1.7-3.1-4.4-0.4-6.2c-2.9,1.9-5.2,6.1-5.2,9.5l0,11.5c0,3.6,2.5,8,5.7,9.8l201.1,116.1
						c1.6,0.9,3.6,1.4,5.7,1.4v-24.5c-2.1,0-4.1-0.4-5.7-1.3L114.4,263.8z"/>
				</g>
				<g>
					<path class="st13" d="M245.9,218.1c0.7-3.8-2.7-10.5-7.5-14.9L219,185.2c-2.7-2.5-5.3-3.8-7.1-3.7c0,0,0,0,0,0
						c-4.8-0.4-26.1,9.9-36.7,16c-10.7,6.1-34.1,21.1-38.6,27.9c-1.5,2.2,29.4,39,34.2,38.1c10.6-1.9,30.8-11.5,41.4-18
						c17.4-10.6,27.8-19.7,31.6-23.7C245.6,219.9,245.7,218.9,245.9,218.1z"/>
					<path class="st14" d="M143.3,241.9l19.4,17.9c4.8,4.5,9.3,5,9.9,1.2c0.7-3.8-2.7-10.5-7.5-14.9l-19.4-17.9
						c-4.8-4.5-9.3-5-9.9-1.2C135.1,230.8,138.5,237.5,143.3,241.9z"/>
				</g>
			</g>
			<g>
				<g>
					<path class="st9" d="M227.5,329.2l0,42.9l93.6,54v-44.8c-2,0.1-3.9-0.5-5.7-1.4L227.5,329.2z"/>
					<path class="st7" d="M227.5,329.2l0,42.9l93.6,54v-44.8c-2,0.1-3.9-0.5-5.7-1.4L227.5,329.2z"/>
				</g>
				<g>
					<path class="st9" d="M448.2,309.8c2.9-1.7,3.1-4.4,0.6-6.2c2.8,2,5.1,6,5.1,9.4v11.5v24.9l-132.7,76.6v-44.8
						c1.9,0,3.8-0.4,5.7-1.3L448.2,309.8z"/>
					<path class="st15" d="M448.2,309.8c2.9-1.7,3.1-4.4,0.6-6.2c2.8,2,5.1,6,5.1,9.4v11.5v24.9l-132.7,76.6v-44.8
						c1.9,0,3.8-0.4,5.7-1.3L448.2,309.8z"/>
				</g>
				<g>
					<path class="st9" d="M448.2,303.3l-146.5-84.6c-65.2,37.6-21.6,80-74.2,110.5l87.9,50.7c3.1,1.8,8.2,1.8,11.3,0l121.4-70.1
						C451.3,308,451.3,305.1,448.2,303.3z"/>
					<path class="st8" d="M448.2,303.3l-146.5-84.6c-65.2,37.6-21.6,80-74.2,110.5l87.9,50.7c3.1,1.8,8.2,1.8,11.3,0l121.4-70.1
						C451.3,308,451.3,305.1,448.2,303.3z"/>
					<polygon class="st8" points="248.7,341.4 248.7,384.4 251.4,385.9 251.4,342.9 					"/>
					<path class="st6" d="M248.7,341.4c47.1-29.3,17.3-69.4,30-105.2c1.3-1.4,2-2.1,3.7-3.7c-13.7,42.4,17.3,82.3-31.1,110.4
						L248.7,341.4z"/>
				</g>
			</g>
		</g>
	</g>
</g>
<g id="Nightstand_1_">
	<g id="Nightstand">
		<g id="Nightstand_2_">
			<polygon id="XMLID_694_" points="123,347.1 115.5,342.8 123,340.7 			"/>
			<polygon id="XMLID_691_" points="85.6,362.2 85.6,369.1 42.7,344.2 42.7,337.4 			"/>
			<polygon id="XMLID_690_" class="st2" points="38.9,283.6 81.9,308.5 81.9,364.4 38.9,339.5 			"/>
			<polygon id="XMLID_684_" class="st3" points="81.9,308.5 130.4,280.4 130.4,336.4 81.9,364.4 			"/>
			<polygon id="XMLID_679_" class="st4" points="130.4,280.4 87.5,255.6 38.9,283.6 81.9,308.5 			"/>
			<polygon id="XMLID_675_" class="st4" points="85.6,310.6 126.7,286.9 126.7,299.8 85.6,323.5 			"/>
			<polygon id="XMLID_674_" class="st8" points="85.6,327.8 126.7,304.1 126.7,334.2 85.6,357.9 			"/>
			<polygon id="XMLID_673_" class="st2" points="85.6,369.1 89.4,366.9 89.4,360.1 85.6,362.2 			"/>
			<polygon id="XMLID_654_" class="st2" points="123,347.1 126.7,345 126.7,338.5 123,340.7 			"/>
			<path id="XMLID_644_" class="st3" d="M98.4,306c0,0.6,1.8,0,4-1.2l7-4c2.2-1.3,4-2.8,4-3.4l0-1.1l-14.9,8.6
				C98.4,304.9,98.4,305.4,98.4,306z"/>
			<polygon id="XMLID_642_" class="st8" points="126.7,334.2 100.8,319.1 85.6,327.8 85.6,357.9 			"/>
		</g>
		<path class="st13" d="M90.7,307.7l0.7-0.4c2.8,0.3,5.2,3.4,6.7,2.8c1.6-0.6,2.6-7.3,2.3-8C100.1,301.5,91,306.1,90.7,307.7z"/>
		<g id="Lamp_2_">
			<g id="XMLID_627_">
				<g id="XMLID_634_">
					<path id="XMLID_637_" class="st2" d="M72.9,284.3c0-0.3,0-0.6-0.1-0.9c-0.5-3.2-3.3-6.7-5.2-7.8h-11c-1.9,1.1-4.7,4.6-5.2,7.8
						c-0.1,0.3-0.1,0.6-0.1,0.9c0,0,0,0.1,0,0.1c0.1,1.5,1.1,3,3.1,4.2c4.2,2.4,11.1,2.4,15.3,0c2-1.2,3-2.7,3.1-4.2
						C72.9,284.5,72.9,284.4,72.9,284.3z"/>
				</g>
				<g id="XMLID_631_">
					<path id="XMLID_632_" class="st3" d="M56.9,275.5c-2.9,1.7-2.9,4.3,0,6c2.9,1.7,7.5,1.7,10.4,0c2.9-1.7,2.9-4.3,0-6
						C64.4,273.8,59.7,273.8,56.9,275.5z"/>
				</g>
			</g>
			<path id="XMLID_626_" class="st2" d="M63.6,222.5h-3v54.8h0c0,0.2,0.1,0.5,0.4,0.7c0.6,0.3,1.5,0.3,2.1,0
				c0.3-0.2,0.5-0.4,0.4-0.7h0V222.5z"/>
			<g id="XMLID_620_">
				<g id="XMLID_621_">
					<path id="XMLID_625_" class="st4" d="M83.4,221.2L83.4,221.2l-10-25.6H50.8l-10,25.6h0c-1.4,4,0.5,8.3,5.9,11.4
						c8.5,4.9,22.3,4.9,30.8,0C82.8,229.6,84.8,225.2,83.4,221.2z"/>
					<path id="XMLID_624_" class="st4" d="M53.9,201.8c4.5,2.6,11.8,2.6,16.3,0c4.5-2.6,4.5-6.8,0-9.4c-4.5-2.6-11.8-2.6-16.3,0
						C49.4,194.9,49.4,199.2,53.9,201.8z"/>
					<path id="XMLID_623_" class="st3" d="M53.9,192.3c-0.7,0.5-1.4,1-2,1.6c-0.6,0.6-1,1.4-1.2,2.2c-0.2,0.8-0.1,1.7,0.3,2.4
						c0.3,0.8,0.9,1.4,1.5,2c2.6,2.1,6.2,2.9,9.5,2.9c3.4,0,6.9-0.8,9.5-2.9c0.6-0.6,1.2-1.2,1.5-2c0.3-0.8,0.4-1.6,0.3-2.4
						c-0.2-0.8-0.6-1.6-1.2-2.2c-0.6-0.6-1.3-1.2-2-1.6c0.7,0.4,1.5,0.9,2.1,1.5c0.6,0.6,1.1,1.4,1.3,2.2c0.2,0.9,0.1,1.8-0.2,2.6
						c-0.3,0.8-0.9,1.5-1.6,2.1c-1.3,1.2-3,1.9-4.6,2.4c-1.7,0.5-3.4,0.7-5.2,0.7c-1.7,0-3.5-0.2-5.2-0.7c-1.7-0.5-3.3-1.2-4.6-2.4
						c-0.6-0.6-1.2-1.3-1.6-2.1c-0.3-0.8-0.4-1.8-0.2-2.6c0.2-0.9,0.7-1.6,1.3-2.2C52.4,193.3,53.2,192.8,53.9,192.3z"/>
					<path id="XMLID_622_" class="st3" d="M62.1,202.1c-2.7,0-5.2-0.6-7.1-1.7c-1.7-1-2.6-2.1-2.6-3.4c0-1.2,0.9-2.4,2.6-3.4
						c1.9-1.1,4.4-1.7,7.1-1.7c2.7,0,5.2,0.6,7.1,1.7c1.7,1,2.6,2.1,2.6,3.4c0,1.2-0.9,2.4-2.6,3.4
						C67.3,201.5,64.8,202.1,62.1,202.1z"/>
				</g>
			</g>
		</g>
	</g>
</g>
<g id="Clutter">
	<g id="Shirt_1_">
		<path id="Shadow_99_" class="st8" d="M419.6,316.3c-2.8-2.3-15-12.3-15-12.3s-6.4,0.4-14.4-0.9c-8-1.2-20.3-8.7-20.3-8.7l-4.3,1.5
			c0,0,26,11,14.3,17.8c-11.7,6.8-30.8-8.2-30.8-8.2l-2.7,2.5c0,0,12.9,7.1,15,11.7c2.1,4.6,1.5,8.3,1.5,8.3s17.1,7.2,21.3,8.7
			c9.3,3.2,9.3,6.2,10.2,10.4s2.7,18.2,2.7,18.2s26.1-4.7,39.2-21.6C436.2,343.9,430.4,325.2,419.6,316.3z"/>
		<g id="Shirt">
			<path class="st2" d="M367.4,294.4c5.7,2.8,15.2,11.1,10,14.6c-5.2,3.5-19.3-0.5-26.5-5.1c0,0,14.5,14.6,26.2,14.1s15-8.5,10.7-13
				C383.5,300.7,367.4,294.4,367.4,294.4z"/>
			<path class="st3" d="M421.4,314.7c-2.8-2.3-15-12.3-15-12.3s-6.4,0.4-14.4-0.9c-8-1.2-20.3-8.7-20.3-8.7l-4.3,1.5
				c0,0,26,11,14.3,17.8s-30.8-8.2-30.8-8.2l-2.7,2.5c0,0,12.9,7.1,15,11.7c2.1,4.6,1.5,8.3,1.5,8.3s17.1,7.2,21.3,8.7
				c9.3,3.2,9.3,6.2,10.2,10.4c0.9,4.1,2.7,18.2,2.7,18.2s26.1-4.7,39.2-21.6C438,342.2,432.2,323.5,421.4,314.7z"/>
		</g>
	</g>
	<g id="Sock_6_" class="st0">
		<path class="st16" d="M132.8,370.5c5.1,4.3,10.3,9.6,15.4,11.3c2.7,0.9,7,0.2,10.3,0.1c10.4-0.5,16.3-1.9,18.3,2
			c2.4,4.5-22.4,9.7-30.2,9.7c-7.8,0-9-2.1-15.8-7.5c-6.8-5.3-11.7-9.9-11.7-9.9L132.8,370.5z"/>
		<g id="Sock_7_" class="st17">
			<path class="st18" d="M132.8,368.7c5.1,4.3,10.3,9.6,15.4,11.3c2.7,0.9,7,0.2,10.3,0.1c10.4-0.5,16.3-1.9,18.3,2
				c2.4,4.5-22.4,9.7-30.2,9.7c-7.8,0-9-2.1-15.8-7.5c-6.8-5.3-11.7-9.9-11.7-9.9L132.8,368.7z"/>
			<path class="st7" d="M132.8,368.7c5.1,4.3,10.3,9.6,15.4,11.3c2.7,0.9,7,0.2,10.3,0.1c10.4-0.5,16.3-1.9,18.3,2
				c2.4,4.5-22.4,9.7-30.2,9.7c-7.8,0-9-2.1-15.8-7.5c-6.8-5.3-11.7-9.9-11.7-9.9L132.8,368.7z"/>
			<g>
				<path class="st18" d="M169.1,379.4c4-0.1,6.6,0.3,7.8,2.7c0.8,1.6-1.7,3.2-5.6,4.7C168.6,384.3,168.2,381.7,169.1,379.4z"/>
				<path class="st18" d="M134.9,387.6c6.2-0.9,12.7,0.3,15.7,4c-1.5,0.2-2.9,0.3-3.9,0.3C140.7,391.8,138.5,390.5,134.9,387.6z"/>
			</g>
			<path class="st19" d="M119.1,374.4l13.7-5.7c2.1,1.8,4.3,3.7,6.4,5.5l-14.2,5.3C121.4,376.5,119.1,374.4,119.1,374.4z"/>
		</g>
	</g>
	<g id="Coffee_1_" class="st0">
		<path id="Shadow_20_" class="st16" d="M255.4,457c3,2.6,6.9,4.8,11.7,6.6c1.3,0.5,3.2,0.2,4.3-0.5l25.5-16.6
			c1.1-0.7,1.2-2,0.2-2.9c-2.9-2.3-6.2-4.1-9.8-5.6c-1.2-0.5-3.2-0.3-4.4,0.4l-27.2,15.7C254.6,454.8,254.4,456.1,255.4,457z"/>
		<g class="st17">
			<path d="M304.1,440.6c0,2.6-4.1,4.6-9.3,4.6c-5.1,0-9.2-2.1-9.2-4.6c0-2.6,4.1-4.6,9.2-4.6c0.1,0,0.2,0,0.3,0
				c-4.5,0.1-8.2,1.9-8.2,4.2c0,2.3,3.8,4.2,8.5,4.2c4.7,0,8.5-1.9,8.5-4.2c0-0.4-0.1-0.8-0.3-1.2
				C303.9,439.5,304.1,440,304.1,440.6z"/>
			<path d="M303.5,439c-1.3-1.7-4.5-3-8.4-3c0.1,0,0.2,0,0.3,0C299.2,436,302.5,437.2,303.5,439z"/>
		</g>
		<path class="st17" d="M259.4,464.3c0,0.5-0.8,0.9-1.8,0.9c-1,0-1.8-0.4-1.8-0.9c0-0.5,0.8-0.9,1.8-0.9
			C258.6,463.4,259.4,463.8,259.4,464.3z"/>
		<path class="st17" d="M261.7,462.4c0,0.2-0.4,0.4-0.9,0.4c-0.5,0-0.9-0.2-0.9-0.4c0-0.2,0.4-0.4,0.9-0.4
			C261.3,462,261.7,462.2,261.7,462.4z"/>
		<g id="Coffee_2_" class="st17">
			<g id="XMLID_1258_">
				<path id="XMLID_1259_" class="st18" d="M273.7,452.4c-3.2-2.8-6.4-8.3-7-12.4c-0.6-4.1,1.5-5.3,4.6-2.6c3.2,2.6,6.3,8.2,7,12.4
					C279,454,276.9,455.1,273.7,452.4z"/>
			</g>
			<g id="XMLID_1240_" class="st7">
				<path id="XMLID_1256_" d="M273.7,452.4c-3.2-2.8-6.4-8.3-7-12.4c-0.6-4.1,1.5-5.3,4.6-2.6c3.2,2.6,6.3,8.2,7,12.4
					C279,454,276.9,455.1,273.7,452.4z"/>
			</g>
			<g id="XMLID_1236_">
				<path id="XMLID_1237_" class="st18" d="M271,457.5l-10-17.9l21.8-10.5l0,0c0.8-0.3,2-0.1,3.3,1c2.9,2.2,5.6,7,6,10.7
					c0.2,1.7-0.1,2.9-0.8,3.4l0,0L271,457.5z"/>
			</g>
			<g id="XMLID_1234_" class="st20">
				<path id="XMLID_1235_" class="st21" d="M271,457.5l-10-17.9l21.8-10.5l0,0c0.8-0.3,2-0.1,3.3,1c2.9,2.2,5.6,7,6,10.7
					c0.2,1.7-0.1,2.9-0.8,3.4l0,0L271,457.5z"/>
			</g>
			<g id="XMLID_1232_" class="st6">
				<path id="XMLID_1233_" class="st18" d="M261,439.7l4.4-2.1c0.5,0.3,1.1,0.6,1.6,1c3.8,3,7.4,9.3,8,14.2c0,0.2,0,0.4,0,0.6
					c0.1,0.8,0,1.5,0,1.5l-4.1,2.7L261,439.7z"/>
			</g>
			<g id="XMLID_1113_" class="st5">
				<path id="XMLID_1114_" d="M261,439.7l4.4-2.1c0.5,0.3,1.1,0.6,1.6,1c3.8,3,7.4,9.3,8,14.2c0,0.2,0,0.4,0,0.6
					c0.1,0.8,0,1.5,0,1.5l-4.1,2.7L261,439.7z"/>
			</g>
			<g id="XMLID_987_">
				<g id="XMLID_1111_">
					<path id="XMLID_1112_" class="st18" d="M272.3,458.3l-3.2,1.8l-1.2-2.1c-0.3-0.2-0.6-0.4-0.9-0.7c-3.8-3.1-7.4-9.5-8-14.2
						c0-0.4-0.1-0.8-0.1-1.1l-1.1-2l3.2-1.8l0,0c1-0.6,2.6-0.2,4.5,1.3c3.8,3,7.4,9.3,8,14.2C273.8,456.1,273.3,457.7,272.3,458.3z"
						/>
				</g>
				<g id="XMLID_1109_" class="st8">
					<path id="XMLID_1110_" d="M272.3,458.3l-3.2,1.8l-1.2-2.1c-0.3-0.2-0.6-0.4-0.9-0.7c-3.8-3.1-7.4-9.5-8-14.2
						c0-0.4-0.1-0.8-0.1-1.1l-1.1-2l3.2-1.8l0,0c1-0.6,2.6-0.2,4.5,1.3c3.8,3,7.4,9.3,8,14.2C273.8,456.1,273.3,457.7,272.3,458.3z"
						/>
				</g>
				<g id="XMLID_1103_">
					<path id="XMLID_1108_" class="st9" d="M264.5,458.8c-3.8-3.1-7.4-9.5-8-14.2c-0.6-4.8,2-6.2,5.8-3.3c3.8,3,7.4,9.3,8,14.2
						C270.9,460.4,268.3,461.8,264.5,458.8z"/>
				</g>
				<g id="XMLID_988_">
					<path class="st18" d="M267.3,458.7L267.3,458.7l-3,0.9l-2.9-5.1c-1.1-1.5-2.1-3.3-2.9-5.1l-2.8-5l2.3-2.1l0,0
						c0.8-0.9,2.2-0.7,4,0.8c3.1,2.5,6,7.7,6.6,11.7C269,457.1,268.4,458.5,267.3,458.7z"/>
					<path class="st8" d="M267.3,458.7L267.3,458.7l-3,0.9l-2.9-5.1c-1.1-1.5-2.1-3.3-2.9-5.1l-2.8-5l2.3-2.1l0,0
						c0.8-0.9,2.2-0.7,4,0.8c3.1,2.5,6,7.7,6.6,11.7C269,457.1,268.4,458.5,267.3,458.7z"/>
					<g id="XMLID_1100_">
						<path id="XMLID_1101_" class="st9" d="M261.3,458.3c-2.8-2.4-5.5-7.2-6.1-10.8c-0.5-3.5,1.2-4.5,4-2.2
							c2.7,2.3,5.5,7.1,6.1,10.8C265.9,459.7,264.1,460.7,261.3,458.3z"/>
					</g>
					<g id="XMLID_1098_">
						<path id="XMLID_1099_" class="st18" d="M264,458.4c0,0,0.1-0.2,0.2-0.5c0-0.3,0-0.9-0.1-1.6c-0.3-1.6-1-3.6-2.1-5.5
							c-1.1-1.9-2.4-3.5-3.6-4.6c-0.6-0.5-1-0.7-1.3-0.8c-0.3-0.1-0.5-0.1-0.6-0.1c-0.1,0-0.4,0.6-0.2,2.1c0.2,1.6,1,3.5,2,5.4
							c1.1,1.9,2.4,3.6,3.6,4.6C263.2,458.4,263.9,458.4,264,458.4z"/>
					</g>
					<g id="XMLID_1096_" class="st22">
						<path id="XMLID_1097_" class="st23" d="M264,458.4c0,0,0.1-0.2,0.2-0.5c0-0.3,0-0.9-0.1-1.6c-0.3-1.6-1-3.6-2.1-5.5
							c-1.1-1.9-2.4-3.5-3.6-4.6c-0.6-0.5-1-0.7-1.3-0.8c-0.3-0.1-0.5-0.1-0.6-0.1c-0.1,0-0.4,0.6-0.2,2.1c0.2,1.6,1,3.5,2,5.4
							c1.1,1.9,2.4,3.6,3.6,4.6C263.2,458.4,263.9,458.4,264,458.4z"/>
					</g>
					<g id="XMLID_1094_">
						<path id="XMLID_1095_" class="st24" d="M264.2,457.8c0-0.3,0-0.9-0.1-1.6c-0.3-1.6-1-3.6-2.1-5.5c-1.1-1.9-2.4-3.5-3.6-4.6
							c-0.6-0.5-1-0.7-1.3-0.8c-0.1,0.3-0.1,0.8,0,1.6c0.2,1.6,1,3.5,2,5.4s2.4,3.6,3.6,4.6C263.4,457.4,263.8,457.7,264.2,457.8z"
							/>
					</g>
					<g id="XMLID_1092_" class="st25">
						<path id="XMLID_1093_" class="st17" d="M264.2,457.8c0-0.3,0-0.9-0.1-1.6c-0.3-1.6-1-3.6-2.1-5.5c-1.1-1.9-2.4-3.5-3.6-4.6
							c-0.6-0.5-1-0.7-1.3-0.8c-0.1,0.3-0.1,0.8,0,1.6c0.2,1.6,1,3.5,2,5.4s2.4,3.6,3.6,4.6C263.4,457.4,263.8,457.7,264.2,457.8z"
							/>
					</g>
					<g id="XMLID_993_" class="st22">
						<path id="XMLID_1074_" d="M262.5,454.8c0,0.6,0.2,1.2,0.4,1.3c0.2,0.2,0.5-0.2,0.5-0.8c0-0.6-0.2-1.2-0.4-1.3
							C262.7,453.8,262.5,454.2,262.5,454.8z"/>
					</g>
				</g>
			</g>
			<g id="XMLID_984_">
				<path id="XMLID_985_" class="st9" d="M275.6,432.3c0.8-0.4,2-0.1,3.5,1.1c3,2.5,5.9,7.7,6.6,11.7c0.3,2,0,3.2-0.8,3.7l-7.4,4.9
					c0.8-0.5,1.2-1.8,0.9-3.9c-0.7-4.2-3.8-9.7-7-12.4c-1.6-1.3-2.9-1.7-3.7-1.2L275.6,432.3z"/>
			</g>
			<g id="XMLID_978_">
				<g id="XMLID_981_">
					<path id="XMLID_982_" class="st3" d="M279.1,437.5c-0.6-0.1-1.1,0-1.7,0c-1.1,0-2.1-0.3-2.9-1c-0.1-0.1-0.1-0.3-0.1-0.4
						c0.6-0.9,2-1.4,3.5-1c1.4,0.4,2.4,1.5,2.5,2.6c0,0.1-0.1,0.1-0.1,0.1C279.9,437.7,279.6,437.6,279.1,437.5z"/>
				</g>
				<g id="XMLID_979_">
					<path id="XMLID_980_" class="st3" d="M274.5,437.2c0.4,0.4,1,0.6,1.5,0.8c0.6,0.2,1.2,0.3,1.8,0.2c0.9-0.1,1.5,0,2.2,0.3
						c0.1,0.1,0.2,0.2,0.1,0.4c-0.6,1.1-2.1,1.6-3.6,1.2c-1.4-0.4-2.4-1.5-2.5-2.7C274.1,437.1,274.4,437,274.5,437.2z"/>
				</g>
			</g>
		</g>
	</g>
	<g id="Flip_flops">
		<g id="Shadow_91_">
			<path class="st2" d="M373.6,240.9c-4.5,2.2-3.5,5.3,0,8.2c3.5,2.9,9,4.4,11.5,7.2c2.5,2.8,6.1,8.1,14.4,8.1
				c8.3,0,15.3-3.2,11.6-7.3c-3.6-4.1-7.6-5.3-13.6-7.9c-6.1-2.6-9.6-5.6-13.6-7.6C380.6,239.9,377.4,239.1,373.6,240.9z"/>
			<path class="st2" d="M407.2,229.4c3.8-2.6,9.1-2,14.2,0c5.1,2,7.7,5.2,12.5,6.6c4.9,1.5,10.3,2.6,12,8c1.4,4.6-4.7,8.9-10.6,7.6
				c-5.1-1.1-9.3-4.9-13.7-8.5c-4.4-3.5-9.7-5.6-13.2-7.8C405.4,233.5,404,231.6,407.2,229.4z"/>
		</g>
		<g>
			<path class="st3" d="M411.2,252.4c-3.6-4.1-7.6-5.3-13.6-7.9c-6.1-2.6-9.6-5.6-13.6-7.6c-3.3-1.7-6.5-2.5-10.4-0.7
				c-2.1,1-3,2.2-3,3.5c0,0.4,0,1.9,0,2.3c0.1,1.4,1.2,3,3,4.5c3.5,2.9,9,4.4,11.5,7.2c2.5,2.8,6.1,8.1,14.4,8.1
				c6.7,0,12.6-2.1,12.6-5.1c0-0.4,0-1.9,0-2.2C412.1,253.9,411.8,253.2,411.2,252.4z"/>
			<path class="st4" d="M373.6,236.3c-4.5,2.2-3.5,5.3,0,8.2c3.5,2.9,9,4.4,11.5,7.2c2.5,2.8,6.1,8.1,14.4,8.1
				c8.3,0,15.3-3.2,11.6-7.3c-3.6-4.1-7.6-5.3-13.6-7.9c-6.1-2.6-9.6-5.6-13.6-7.6C380.6,235.2,377.4,234.4,373.6,236.3z"/>
			<g>
				<path class="st26" d="M403.9,254.5c-0.3,0-0.7-0.2-0.8-0.5c-0.1-0.2-1.6-3.4-5.2-3.9c-4.1-0.6-15.8-0.6-15.9-0.6c0,0,0,0,0,0
					c-0.5,0-0.9-0.4-0.9-0.9c0-0.5,0.4-0.9,0.9-0.9c0.5,0,12,0,16.2,0.6c4.6,0.7,6.5,4.8,6.6,5c0.2,0.5,0,1-0.5,1.2
					C404.1,254.5,404,254.5,403.9,254.5z"/>
			</g>
			<g>
				<path class="st26" d="M402.9,253C402.9,253,402.9,253,402.9,253c-0.5,0-0.9-0.4-0.9-0.9c0-0.4,0.1-0.8,0.1-1.2
					c0.2-1.2,0.3-2.4-0.5-3.4c-1.1-1.4-3.7-2.2-7.7-2.6c-0.5-0.1-0.9-0.5-0.8-1c0.1-0.5,0.5-0.9,1-0.8c4.6,0.5,7.5,1.6,8.9,3.3
					c1.3,1.7,1.1,3.5,0.9,4.8c0,0.4-0.1,0.7-0.1,1C403.8,252.6,403.4,253,402.9,253z"/>
			</g>
		</g>
		<g>
			<path class="st3" d="M445.9,239.4c-1.6-5.4-7.1-6.6-12-8c-4.9-1.5-7.5-4.6-12.5-6.6c-5.1-2-10.4-2.6-14.2,0
				c-1.3,0.9-1.9,1.8-1.8,2.6c0,0.4,0,1.8,0,2.2c0,1.2,1.2,2.3,3,3.4c3.5,2.3,8.8,4.3,13.2,7.8c4.4,3.5,8.6,7.4,13.7,8.5
				c5.3,1.2,10.8-2.3,10.7-6.3c0-0.3,0-1.9,0-2.4C446,240.2,446,239.8,445.9,239.4z"/>
			<path class="st4" d="M407.2,224.8c3.8-2.6,9.1-2,14.2,0c5.1,2,7.7,5.2,12.5,6.6c4.9,1.5,10.3,2.6,12,8c1.4,4.6-4.7,8.9-10.6,7.6
				c-5.1-1.1-9.3-4.9-13.7-8.5c-4.4-3.5-9.7-5.6-13.2-7.8C405.4,228.8,404,227,407.2,224.8z"/>
			<g>
				<path class="st26" d="M436.7,242.6c-0.4,0-0.8-0.3-0.9-0.7c-0.2-0.6-2.2-3.9-7.4-4.8c-5.5-1-9.4-1.1-9.5-1.1
					c-0.5,0-0.9-0.4-0.9-0.9c0-0.5,0.4-0.9,0.9-0.9c0,0,0,0,0,0c0.2,0,4.1,0.1,9.7,1.1c5.8,1,8.6,4.8,8.9,6.1c0.1,0.5-0.2,1-0.6,1.1
					C436.9,242.6,436.8,242.6,436.7,242.6z"/>
			</g>
			<g>
				<path class="st26" d="M435.7,241c-0.1,0-0.2,0-0.3-0.1c-0.5-0.2-0.7-0.7-0.6-1.2c0,0,1.5-4.1,0.7-7.4c-0.5-2.3-5.7-2-7.5-1.7
					c-0.5,0.1-1-0.3-1-0.8c-0.1-0.5,0.3-1,0.8-1c0.9-0.1,8.6-1.2,9.6,3.1c0.9,3.8-0.7,8.2-0.8,8.4C436.4,240.7,436,241,435.7,241z"
					/>
			</g>
		</g>
	</g>
	<g id="Sock_4_">
		<path id="Shadow_88_" class="st6" d="M374.4,167.1c0-0.1-0.1-0.3-0.1-0.5c0-0.1,0-0.1,0-0.2c0-0.2,0-0.3,0-0.5c0-0.1,0-0.1,0-0.2
			c0-0.2,0-0.4,0-0.6c0-0.1,0-0.1,0-0.2c0-0.2,0.1-0.4,0.1-0.7c0,0,0-0.1,0-0.1c0.1-0.2,0.1-0.5,0.2-0.8c0,0,0-0.1,0-0.1
			c0.1-0.3,0.2-0.6,0.3-0.8c0,0,0,0,0,0c0.9-2.7,2.5-5.8,4.1-8.9c2.9-5.7,1.5-10.9,1.1-16.3l-2.1-1l9.9-5.7l1.4,1.4
			c0,0,0.4,3.5,0.7,7.3c0,0,0,0,0,0c0.1,0.6,0.1,1.2,0.2,1.8c0,0.2,0,0.4,0.1,0.6c0,0.2,0,0.4,0,0.5c0,0.2,0,0.4,0.1,0.7
			c0,0.2,0,0.4,0,0.5c0,0.3,0,0.5,0.1,0.7c0,0.1,0,0.2,0,0.3c0,0.5,0,1.1,0,1.6c0,0.1,0,0.3,0,0.4c-0.1,0.5-0.1,1-0.3,1.5
			c0,0,0,0.1,0,0.1c-0.1,0.5-0.3,1.1-0.5,1.6c-0.1,0.2-0.1,0.3-0.2,0.5c-0.2,0.5-0.4,0.9-0.6,1.4c0,0.1-0.1,0.2-0.1,0.3
			c-0.3,0.5-0.5,1.1-0.8,1.6c-0.1,0.2-0.2,0.4-0.3,0.6c-0.1,0.1-0.1,0.3-0.2,0.4c0,0,0,0,0,0c-0.9,1.6-1.9,3.3-2.9,4.9
			c-1.6,2.7-3.9,5.7-5.8,7.4c0,0,0,0,0,0c-0.2,0.2-0.4,0.4-0.7,0.6c0,0-0.1,0-0.1,0.1c-0.2,0.1-0.4,0.3-0.6,0.4c0,0-0.1,0.1-0.1,0.1
			c-0.2,0.1-0.3,0.2-0.5,0.3c-0.1,0-0.1,0.1-0.2,0.1c-0.1,0.1-0.3,0.1-0.4,0.1c-0.1,0-0.1,0-0.2,0c-0.1,0-0.2,0-0.4,0
			c-0.1,0-0.1,0-0.2,0c-0.1,0-0.2-0.1-0.3-0.1c0,0-0.1,0-0.1-0.1c-0.1-0.1-0.2-0.2-0.3-0.4c0,0,0,0,0,0c0,0,0,0,0,0
			c-0.1-0.2-0.2-0.3-0.2-0.5C374.5,167.3,374.5,167.2,374.4,167.1z"/>
		<g id="Sock_5_">
			<path class="st4" d="M381.8,136.5c0.4,5.4,1.7,10.6-1.1,16.3c-2.9,5.7-6,11.6-4.4,14.3c1.6,2.7,6.7-3.3,9.8-8.4s6.4-10,6-14.9
				c-0.4-4.9-1.2-12.5-1.2-12.5l-2-1.3l-9.5,5.5L381.8,136.5z"/>
			<path class="st19" d="M381.8,136.5c0.4,5.4,1.7,10.6-1.1,16.3c-2.9,5.7-6,11.6-4.4,14.3c1.6,2.7,6.7-3.3,9.8-8.4s6.4-10,6-14.9
				c-0.4-4.9-1.2-12.5-1.2-12.5l-2-1.3l-9.5,5.5L381.8,136.5z"/>
			<g>
				<path class="st27" d="M392.1,143.7c-0.1-1.6-0.3-3.4-0.4-5.2c-2.9,3.3-4.9,11.8-2.6,15.3C391,150.4,392.4,147.1,392.1,143.7z"/>
				<path class="st27" d="M376.9,160.8c-1,2.6-1.4,4.9-0.6,6.3c0.8,1.4,2.7,0.4,4.7-1.7C381,162.8,379.5,160.7,376.9,160.8z"/>
			</g>
		</g>
	</g>
</g>
<g id="Character">
	<path id="Shadow_15_" class="st19" d="M191.9,206.4c-4.7,1.8-8,6.6-8,11.6c0,1.2,0.2,2.4,0,3.6c-0.4,2.3-1.7,4.2-1.6,6.7
		c0,2.3,0.8,4.6,2,6.5c2.1,3.3,5.9,5,9.8,5.4c2.9,0.3,6-0.2,8.8,0.7c2.1,0.7,4,1.6,6.2,2.2c2.3,0.6,4.7,0.7,6.9,0.1
		c2.2-0.7,4.3-2.2,5.2-4.4c1.3,1.1,0.8,3.1,0.4,4.8c-1.1,4.6-0.5,9.6,1.8,13.8c1.7,3.1,4.3,5.8,4.9,9.3c-5.5,0.8-11.3-1.2-15.2-5.1
		c-0.9-0.9-1.7-2-2.6-2.9c-1-1-2.1-1.9-2.9-3c-1-1.2-1.8-2.8-2.7-4.1c-0.4-0.7-1.3-3-2.3-2c-0.2,0.2-0.4,0.5-0.5,0.9
		c-0.7,2.3,0.2,5,1.3,7c0.3,0.5,0.6,1.1,0.5,1.6c-0.3,1.9-3.8,0.7-4.8,0.4c-2.6-0.8-4.9-2.9-7.1-4.4c-1-0.7-2-1.4-3.2-1.3
		c-0.6,0-1.3,0.3-1.4,0.9c-0.2,0.8,0.8,1.4,1.2,2.2c0.5,0.9,0,2,0.3,3c0.2,0.7,0.8,1.2,1,1.9c0.2,0.5,0.2,1,0.2,1.4
		c0.4,4,3.3,7.5,6.4,9.6c3.4,2.3,7.3,3.7,11.2,4.7c3.8,0.9,7.6,1.7,11.4,2.5c3.6,0.8,7.1,2.6,10.4,4.1c0.2,0.1,0.3,0.2,0.4,0.3
		c0.1,0.2,0.1,0.4,0,0.7c-0.6,2.5-1.3,4.9-1.3,7.5c0.1,2.2,1.2,4.2,2.4,6.1c1.8,2.6,4.3,4.6,7,6.4c3.8,2.6,7.8,4.9,11.9,7
		c3.2,1.6,6.5,3,9.8,4.5c9.3,4.1,18.4,8.6,27.4,13.2c7.8,4.1,15.3,8.7,19.5,16.8c0.5,1,1,2.1,1.8,2.9c1.1,1.2,2.7,2,4.3,1.1
		c1.3-0.8,2.2-2.5,2.9-3.9c1.6-3.1,2.4-6.7,2-10.3c-0.1-0.9-0.2-1.9-0.3-2.8c-0.3-3.1,0.4-6.1,0.2-9.2c-0.2-3-0.5-6-1.9-8.7
		c-0.5-1-1.2-1.9-1.6-3c-0.4-1.1-0.6-2.4-1-3.5c-1.3-3.1-5.2-3.9-8.2-4.7c-3.3-0.9-6.3-1.9-9.4-3.4c-1.5-0.7-2.8-1.9-4.2-2.8
		c-0.1-0.1-1.6-1.2-1.7-1.1c2.7-1.8,5.8-3.9,8.3-5.9c2.8-2.3,6.2-6.5,7.7-9.8c3.5-7.7,2.8-14.9,0-21.2c-3.8-8.6-8.9-14.5-16.3-20.3
		c-12.4-9.7-25.5-13.4-39.9-15.4c-5.1-0.7-10.3-1.1-15.3-2.3c-11.9-2.9-22.2-10.2-33.5-14.7C198.2,206.5,194.3,205.5,191.9,206.4z"
		/>
	<g id="Character_2_">
		<g id="Top_6_">
			<path class="st28" d="M224.7,237.8c-1.5,5.1-1.7,10.4,0.7,15.7c2.4,5.3,10.9,21.1,10.9,21.1l14.3-6.2l-12.9-22.6L224.7,237.8z"/>
			<path class="st28" d="M224.3,264.9c-3.8-0.9-7.7-2.2-10-5.5c-0.9-1.3-1.8-2.7-2.9-3.8c-1.3-1.3-2.9-2.2-4.3-3.3
				c-0.8-0.6-1.5-1.4-2.1-2.1c-0.3-0.3-0.7-0.7-1.1-0.5c-0.1,0.1-0.2,0.2-0.2,0.3c-0.6,1.1-0.4,2.5,0.1,3.7c0.5,1.2,1.2,2.3,1.7,3.5
				c0.2,0.5,0.6,1.6,0.2,2.1c-0.5,0.6-1.8,0.2-2.3,0.1c-0.9-0.3-3.3-0.7-6-2.1c-0.7-0.4-3.2-2.1-3.8-2.6c-0.1-0.1-0.2-0.1-0.3-0.2
				c-0.9-0.6-2-1.1-3.1-1c-0.1,0-0.2,0-0.3,0.1c-0.2,0.1-0.3,0.5-0.3,0.7c0,0.3,0.2,0.5,0.3,0.8c0.2,0.4,0.5,0.9,0.7,1.3
				c0.3,0.5,0.5,0.8,0.3,1.4c-0.1,0.4-0.3,0.8-0.4,1.2c0,0.8,0.7,1.3,1,2c0.4,0.8-0.1,1.6,0.3,2.4c0.3,0.5,0.7,0.9,1.1,1.3
				c0.2,0.2,0.4,0.3,0.6,0.5c0.5,0.6,0.5,1.4,0.8,2.1c0.5,1.2,1.8,1.6,2.8,2.3c1.3,0.8,2.7,1.6,4.1,2.2c2.8,1.3,5.8,2.1,8.9,2.4
				c1,0.1,2,0.3,3,0.4c2.2,0.3,2.8,0.4,3.7,0.7c4.3,1.6,16.4,5.9,19.5,6.7c2.3,0.6,4.6,1.1,6.9,1.6l0.8-15.8
				C243.8,267.8,233.5,267,224.3,264.9z"/>
			<g>
				<path class="st9" d="M238.7,210.9c0,0-4.5,4.9-6.7,8.4c-1.8,2.9-6.5,13.3-7.4,18.5c0,0,1.6,6.2,6.3,13.3
					c4.2,6.4,6.9,10.2,10.4,11.2c7.2,2.1,10-2.7,10-2.7c4.1,2.6,7.3,4.4,9.6,5.5c4.6-1.7,12.2-5.4,17.9-13.2
					c4.6-6.4,14.2-11.3,19.4-12.1c-4.8-7.8-15.7-17.9-20.2-20.9c-5.1-3.5-12-7.4-19.4-9.7C244.7,204.7,242.2,209.1,238.7,210.9z"/>
			</g>
			<g>
				<path class="st2" d="M222.1,236.5c0.4-1.1,0.5-3-1.2-4.2c-1.5-1-7.6-3.1-10.1-3.1c-2,0-4.1,0.5-5.9,1.6c-1.7,1,0.4,4.6-1.5,5.3
					c-10.3,3.9-16.3-2.6-17.3-6.1c-1-3.3-0.9-7,0.7-8.4c-1.5-2.6-1.3-6.4-0.3-9.2c3.9-10.6,10.4-11.7,12.6-11.4c0,0,1-1.7,2.8-2.7
					c3-1.8,5.3-2.2,9.5-1.7c2.4,0.3,5.6,1.2,11.6,4.8c3,1.8,5.5,3.8,8.8,4.9c-0.7,0.8-1.8,1.3-2.8,1.2c3,1.5,4.6,3.5,5,6.9
					c-1-0.9-2-1.6-3.8-1.6c1.3,1,2.5,3.4,1,5.2c-0.8,0.9-1.7,1.4-2.8,1.7c-0.9,0.3-1.8,0.4-2.8,0.6c-2.6,0.4-0.8,3.6-0.5,5
					c0.5,2.2,0.5,4.1,0.3,6.4C225.2,234.4,223.4,236.1,222.1,236.5z"/>
				<g>
					<g id="XMLID_873_">
						<g id="XMLID_899_">
							<path id="XMLID_908_" class="st28" d="M195,231.7c1,0.7,2.1,1.4,3.2,2c2.1,1.2,4.5,2.3,6.8,3.2c8.3,3.2,11.9,1.9,13.9,0.2
								c1.2-1.1,3-3.7,3.6-6.6l4.8,2.4c0,0,2.9,8.4,7.7,2.6c1.8-2.2,3.4-6.6,2.4-10.5c-1-4-3.2-6.2-3.2-6.2l-10.9-5.8
								c0,0,2.7-2,1.1-5.5c-1.4-3.2-4.3-5-7.1-4c-2.8,0.9-4.1,4.5-2.1,7.4c1.4,2.1-0.5,2.4-2.8,1.4c-2.3-1.1-3.8,0.4-5.3,0.7
								c-5.2,0.8-5.6-1.5-9-0.2c-1.9,0.8-4.1,4.3-3.2,8.1C190.6,222.9,189.9,227.9,195,231.7z"/>
						</g>
						<path class="st2" d="M207.7,219c0.8,0.4,1.1,1.4,0.7,2.1c-0.4,0.8-1.4,1.1-2.1,0.7c-0.8-0.4-0.4-1.1,0-1.9
							S207,218.6,207.7,219z"/>
						<path class="st2" d="M202.3,228.7c0.8,0.2,1.3,1.1,1.1,2c-0.2,0.8-1.1,1.3-2,1.1c-0.8-0.2-0.6-1-0.4-1.8
							C201.3,229,201.4,228.4,202.3,228.7z"/>
						<path class="st29" d="M214.3,229.3c-0.2-0.2-0.3-0.5-0.4-0.8c-0.1-0.4-0.2-0.7-0.1-1.1c0-0.7,0.3-1.4,1-1.8
							c0.1,0,0.1-0.1,0.2,0c0.1,0,0.1,0.1,0.1,0.2c0,0.3-0.3,0.7-0.4,1c-0.1,0.3-0.1,0.6-0.1,0.9c0,0.3,0,0.6,0.2,0.9
							c0.1,0.2,0.2,0.4,0.3,0.7c0,0.1,0.1,0.2,0,0.3c0,0.1-0.2,0.1-0.2,0.1C214.6,229.5,214.4,229.4,214.3,229.3z"/>
						<g id="XMLID_895_">
							<path id="XMLID_897_" class="st2" d="M198.4,226.5l-0.9,3.2c0.9,0.3,1.8-0.2,2-1.1C199.7,227.8,199.2,226.8,198.4,226.5z"/>
						</g>
						<g id="XMLID_881_">
							<path id="XMLID_882_" class="st2" d="M204.9,215.8l-2.3,2.4c0.6,0.7,1.7,0.7,2.3,0C205.5,217.6,205.5,216.5,204.9,215.8z"/>
						</g>
						<g id="XMLID_876_">
							<polygon id="XMLID_877_" class="st30" points="202.6,223.7 211.5,228.4 207.6,232.3 							"/>
						</g>
						<g id="XMLID_874_">
							<path id="XMLID_875_" class="st30" d="M222.5,230.4c1.4-6.8,0.8-12-1.2-14.2c0,0,3.2,1.4,3.8,5.1c0.6,3.8-0.9,10-0.9,10
								L222.5,230.4z"/>
						</g>
					</g>
				</g>
			</g>
		</g>
		<g id="Bottom_9_">
			<g>
				<g id="XMLID_850_">
					<path id="XMLID_853_" class="st28" d="M310.9,343.3c0.1,0.1,0.1,0.2,0.2,0.3c0.3,0.6,0.6,1.3,1.2,1.7c0.9,0.6,2.2,0.3,2.9-0.5
						c0.8-0.8,1.1-1.8,1.4-2.9c0.8-3.3,1.4-7.6,0-10.7c-1.3-2.7-4-4.3-6.3-6.2c-2.3-1.8-4.2-4.1-5.7-6.5c-0.8-1.3-1.7-2.9-3.2-3.3
						c-0.8-0.2-1.6-0.1-2.4-0.1c-2,0.1-3.6-0.5-5.4-1.3c0,0-0.8-0.4-0.8-0.4c-4-2.3-13.8-9.5-16.1-11.3l-7.7,13.9
						c5.1,2.1,17,7.6,20.8,9.2c2.4,1,4.7,2.4,6.9,3.7c2.4,1.4,4.7,3,6.8,4.7C306.4,336.4,309.2,339.6,310.9,343.3z"/>
				</g>
				<g>
					<path class="st2" d="M301.7,249.5c7.3,10.4,7.7,25.5-4.8,37.1c-15.5,14.4-51.5,15.7-59,10.8c-7.5-5-8.2-15.7,10.4-23.7
						c10-4.3,18.7-5.2,30.3-6.4C280.6,265.4,299.7,247,301.7,249.5z"/>
					<path class="st3" d="M232.9,288.5c-0.3,5,2.5,12.3,18.1,19.8c14.2,6.8,22.5,10.5,22.5,10.5s7-3.9,9.2-12.6c0,0-5-4-11.8-9.5
						c-6.8-5.5-25.2-15.2-33.6-16.2C234.2,282.6,233,286.3,232.9,288.5z"/>
					<path class="st2" d="M248.3,273.7c10-4.3,18.8-9.4,30.4-10.7c2.1-1.9,23-10.3,23-10.3"/>
				</g>
				<g>
					<g>
						<path class="st31" d="M309.9,344.2c0.4,1,1.2,2.3,2.4,2.7c1.7,0.6,3.4-1,4.1-2c0.8-1.1,1.9-3.5,2.2-6.1c0.4-3.4,0.5-6.1-1-8.5
							c-1.3-2.1-3.1-3.2-5-4.8c-1.7-1.4-3.6-2.4-5.1-4c-1.5-1.5-2.1-3.7-3.2-5.4c-1.5-2.2-3.5-3.5-6.2-2.7c-2.8,0.8-3,0.4-4.1,0
							c-1.3-0.6-1.5,0.1-1.5,0.1l0.8,0.4c1.7,1.9-1.6,10.5-2.8,11.7l-0.9-0.2c0,0-0.3,0.7,0.7,1.1c5.3,2.1,11.4,7,15.3,11
							C307.5,339.4,309,341.7,309.9,344.2z"/>
					</g>
					<g>
						<path class="st9" d="M318.8,333.6c-0.8-0.6-1.9-0.9-2.9-0.7c-1.9,0.4-6.2,4.2-7.5,8.2c0.6,1,1.1,2,1.5,3.1
							c0.4,1,1.2,2.3,2.4,2.7c1.7,0.6,3.4-1,4.1-2c0.8-1.1,1.9-3.5,2.2-6.1C318.9,336.8,319,335.1,318.8,333.6z"/>
						<path class="st18" d="M304.3,316.1c-1.5-2.2-3.5-3.5-6.2-2.7c-0.3,0.1-0.5,0.1-0.7,0.2c1,3,4.2,6.7,8.5,5.6
							C305.4,318.1,304.9,317,304.3,316.1z"/>
					</g>
				</g>
			</g>
			<g>
				<g id="XMLID_835_">
					<path id="XMLID_849_" class="st28" d="M307.5,333.3c0.8,0.1,1.6-0.1,2.3-0.5c1.7-1,2.6-2.8,3.4-4.6c0.7-1.7,1.2-3.5,1.4-5.4
						c0.1-1.8-0.1-3.7-0.9-5.4c-0.7-1.3-1.6-2.4-2.5-3.6c-0.7-0.9-1.3-1.9-1.7-2.9c-0.2-0.5-0.2-1-0.3-1.5c-0.1-0.6-0.3-1.1-0.4-1.7
						c-0.3-1.5-0.5-3-1.3-4.2c-1.4-2.2-4.1-2.7-6.4-3.4c-0.6-0.2-1.1-0.4-1.7-0.5l-0.8-0.4c-4.1-2-16.8-10.5-19.3-12.2l-6.8,15.1
						c5.2,1.8,16,5.8,19.5,7.5c1.4,0.7,2.8,1.4,4,2.4c2,1.7,3.6,4.1,5,6.4c0.9,1.6,1.7,3.2,2.4,4.9c0.3,0.8,0.5,1.6,0.6,2.5
						c0.3,1.6,0.5,3.4,1,5C305.1,331.8,306.1,333.1,307.5,333.3z"/>
				</g>
				<g>
					<path class="st32" d="M298.4,299.1c1,2.3-2.5,10.9-4,11.7l-1-0.6c0,0-0.5,0.6,1,1.5c1.5,0.9,3.6,3.3,4.6,4.7
						c1,1.4,3.5,5.9,4,8.1c0.5,2.2,1.3,6.5,1.7,9c0.4,2.5,4.5,3.4,7.4-0.9c2.8-4,3.8-8.7,2.8-13.1c-1-4.4-3-5.7-4.4-7.7
						c-1.4-2-1.1-4.3-1.9-6.8c-0.7-2.5-1.3-4-4-4.7c-2.7-0.6-5.1-1.2-6.1-1.9c-1-0.6-1.4,0-1.4,0L298.4,299.1z"/>
					<path class="st9" d="M309.3,308.6c-0.2-1.2-0.3-2.4-0.7-3.7c-0.7-2.5-1.3-4-4-4.7c-0.8-0.2-1.6-0.4-2.4-0.6
						C302.1,303.1,304.4,308.5,309.3,308.6z"/>
					<path class="st9" d="M312.6,324.6c-2.2-0.2-5.4,2-8.4,6.4c0.2,0.9,0.3,1.8,0.4,2.5c0.4,2.5,4.5,3.4,7.4-0.9
						c1.4-2,2.3-4.1,2.8-6.2C314.7,325.5,314,324.7,312.6,324.6z"/>
				</g>
				<g>
					<path class="st4" d="M302.1,245.9c5.5,13.8,2.7,24.8-4.3,31.5c-12.5,11.8-52.7,10.9-60.5,6.6c-7.9-4.3-6.8-13.7,11-23.3
						c9.6-5.1,18.6-8.5,30.9-11.9c1.9-2.1,12.1-9.7,18.8-9.7C299.9,241.6,300.4,242.7,302.1,245.9z"/>
					<path class="st3" d="M246.4,272c3.9-1.6,21.3,1.7,30.3,4.8c7.6,2.6,15.3,1.7,21.5-6.4c5.8-7.7,6-16.6,5.5-20.2
						c3.7,11.1,0.5,21.3-5.8,27.2c-8.1,7.7-27.8,10-42.8,9.5L246.4,272z"/>
					<path class="st4" d="M232.6,276.8c-0.2,5,3.7,11.5,18.2,17c14.7,5.7,25.5,10.3,25.5,10.3s5.9-6,7.3-14.9c0,0-4.5-2.9-11.8-7.8
						c-7.3-4.9-14.9-9.2-23.3-9.5C240.1,271.7,232.6,276.8,232.6,276.8z"/>
				</g>
			</g>
		</g>
		<path id="Arm_1_" class="st28" d="M267.4,249.3l-18.3-18.9c0,0-11.5-11-11.2-18.5c5.7-6.6,12.2-6.8,19-2.1
			c6.8,4.7,22.6,27.3,25.2,31.1c3,4.5,4.9,6.8,1.4,13.5c-6.5,12.6-10,15.7-14.8,23.9c-3,5.2-3.1,5.9-5.6,11.2
			c-1.7,3.6-3.4,7.2-6.1,10.1c-0.2,0.2-0.4,0.4-0.6,0.6c-0.7,0.7-1.5,1.3-2.4,1.3c-0.3,0-0.6-0.1-0.8,0c-0.2,0.1-0.3,0.2-0.5,0.3
			c-0.9,0.7-2.1,1.1-3.2,0.8c-0.3-0.1-0.6-0.2-0.9-0.2c-0.3,0-0.6,0.1-0.9,0.3c-1.3,0.5-2.8,0.7-4-0.1c-0.3-0.2-0.7-0.7-1.1-0.8
			c-0.5-0.1-1,0-1.5,0.1c-0.5,0.1-1,0.2-1.5,0.4c-0.3,0.1-0.6,0.2-0.9,0.1c-0.3,0-0.6-0.2-0.7-0.5c0-0.1,0-0.3,0-0.4
			c0.2-1.2,1-2.2,1.9-2.9c0.1-0.1,0.2-0.2,0.3-0.3c0.7-0.5,3.1-2.7,3.7-3.3c2.7-2.9,3.6-4.8,4.1-5.7c0.3-0.6,0.7-1.8,0.2-2.4
			c-0.4-0.6-1.7-0.5-2.3-0.4c-1.4,0.2-2.7,0.7-4.1,0.9c-1.4,0.2-2.9,0-3.9-0.9c-0.1-0.1-0.2-0.2-0.2-0.3c-0.2-0.4,0.4-0.8,0.8-1
			c1-0.5,1.9-1,2.8-1.7c1.6-1.2,2.9-2.6,4.6-3.6c1.5-0.9,3.1-1.4,4.7-2c4-1.5,6.4-5.2,8.4-9C263.8,259.8,267.4,249.3,267.4,249.3z"
			/>
	</g>
</g>
<g id="Clouds_and_Rain">
	<g id="Clouds_and_Rain_2_">
		<g>
			<g id="Clouds_1_">
				<g id="XMLID_943_">
					<path id="XMLID_944_" class="st31" d="M184.4,101.7l5.6,3.2c0-0.3,0-0.5,0-0.7v-1.6c0-2.9,2-4.1,4.5-2.6c1,0.6,2,1.5,2.7,2.6
						c0.4-3.6,3.3-5,6.7-3c3.8,2.2,6.8,7.4,6.8,11.8v2.4c0,1.1-0.2,2.1-0.6,2.8l4.7,2.7c1.4,0.8,2.5,2.8,2.5,4.4
						c0,1.6-1.1,2.3-2.5,1.5l-30.5-17.6c-1.4-0.8-2.5-2.8-2.5-4.4C181.8,101.5,183,100.9,184.4,101.7z"/>
				</g>
				<g id="XMLID_947_" class="st19">
					<path id="XMLID_948_" d="M184.4,101.7l5.6,3.2c0-0.3,0-0.5,0-0.7v-1.6c0-2.9,2-4.1,4.5-2.6c1,0.6,2,1.5,2.7,2.6
						c0.4-3.6,3.3-5,6.7-3c3.8,2.2,6.8,7.4,6.8,11.8v2.4c0,1.1-0.2,2.1-0.6,2.8l4.7,2.7c1.4,0.8,2.5,2.8,2.5,4.4
						c0,1.6-1.1,2.3-2.5,1.5l-30.5-17.6c-1.4-0.8-2.5-2.8-2.5-4.4C181.8,101.5,183,100.9,184.4,101.7z"/>
				</g>
				<g id="XMLID_939_">
					<path id="XMLID_942_" class="st31" d="M327.8,143.1l-2.7-2.1v-6c0-4.8-3.8-10.3-7.9-12.7l0,0c-4.1-2.4-7.5-0.5-7.5,4.3v0.9
						c-0.9-1.5-2.1-2.7-3.5-3.5l0,0c-3-1.7-5.4-0.3-5.4,3.1v0.4l-3.8-2.2c-2-1.1-3.5-0.2-3.5,2c0,2.3,1.6,5,3.5,6.1l30.7,17.7
						c2,1.1,3.5,0.2,3.5-2C331.4,147,329.8,144.2,327.8,143.1z"/>
				</g>
				<g id="XMLID_945_" class="st19">
					<path id="XMLID_946_" d="M327.8,143.1l-2.7-2.1v-6c0-4.8-3.8-10.3-7.9-12.7l0,0c-4.1-2.4-7.5-0.5-7.5,4.3v0.9
						c-0.9-1.5-2.1-2.7-3.5-3.5l0,0c-3-1.7-5.4-0.3-5.4,3.1v0.4l-3.8-2.2c-2-1.1-3.5-0.2-3.5,2c0,2.3,1.6,5,3.5,6.1l30.7,17.7
						c2,1.1,3.5,0.2,3.5-2C331.4,147,329.8,144.2,327.8,143.1z"/>
				</g>
			</g>
			<path class="st31" d="M244.4,120.4c0.8,0.5,1.5,1.2,2.2,2.1c-0.5-1.7-0.8-3.5-0.8-5.3c0-5.6,2.9-8.4,6.5-6.3
				c1.1,0.6,2.1,1.6,3,2.8c-0.2-0.9-0.3-1.9-0.3-2.8c0-4.5,2.3-6.7,5.2-5c1.2,0.7,2.3,2,3.2,3.5c1.6-6.6,6.1-9.4,11.5-6.3
				c6.7,3.9,12.1,15.3,12.1,25.6c0,3.5-0.6,6.5-1.8,8.7c0.4,0.1,0.9,0.3,1.3,0.6c3.8,2.2,7,8.8,7,14.8c0,5.9-3.1,8.9-7,6.7
				l-42.2-24.4c-2.6-1.5-4.8-6-4.8-10.1C239.7,121,241.8,118.9,244.4,120.4z"/>
			<path class="st19" d="M244.4,120.4c0.8,0.5,1.5,1.2,2.2,2.1c-0.5-1.7-0.8-3.5-0.8-5.3c0-5.6,2.9-8.4,6.5-6.3
				c1.1,0.6,2.1,1.6,3,2.8c-0.2-0.9-0.3-1.9-0.3-2.8c0-4.5,2.3-6.7,5.2-5c1.2,0.7,2.3,2,3.2,3.5c1.6-6.6,6.1-9.4,11.5-6.3
				c6.7,3.9,12.1,15.3,12.1,25.6c0,3.5-0.6,6.5-1.8,8.7c0.4,0.1,0.9,0.3,1.3,0.6c3.8,2.2,7,8.8,7,14.8c0,5.9-3.1,8.9-7,6.7
				l-42.2-24.4c-2.6-1.5-4.8-6-4.8-10.1C239.7,121,241.8,118.9,244.4,120.4z"/>
			<path class="st31" d="M209.7,91.9c0,5.9,3.1,12.5,7,14.7l19.8,11.4c0.8-3.3,3.1-4.8,5.8-3.5c0-0.4,0-0.8,0-1.3
				c0-7.1,3.7-10.7,8.4-8c0.3,0.2,0.6,0.4,0.9,0.6c0.2-2.6,1-4.5,2.3-5.5c-0.9-1.1-1.8-2.1-2.9-2.7c-1.1-0.6-2.1-0.8-3-0.6
				c0.2-0.7,0.3-1.5,0.3-2.5c0-3.6-1.2-6.3-4.1-8.1c-1.6-1-3.7-0.4-4.4,0.9c-0.6-7.8-3.7-12.9-9.1-16c-6.7-3.9-12.7,3.1-13.2,7.8
				c-0.4,3.4,0.1,5.5,0.6,6.9c-0.4-0.4-0.9-0.7-1.3-1C212.8,83,209.7,86,209.7,91.9z"/>
			<path class="st19" d="M209.7,91.9c0,5.9,3.1,12.5,7,14.7l19.8,11.4c0.8-3.3,3.1-4.8,5.8-3.5c0-0.4,0-0.8,0-1.3
				c0-7.1,3.7-10.7,8.4-8c0.3,0.2,0.6,0.4,0.9,0.6c0.2-2.6,1-4.5,2.3-5.5c-0.9-1.1-1.8-2.1-2.9-2.7c-1.1-0.6-2.1-0.8-3-0.6
				c0.2-0.7,0.3-1.5,0.3-2.5c0-3.6-1.2-6.3-4.1-8.1c-1.6-1-3.7-0.4-4.4,0.9c-0.6-7.8-3.7-12.9-9.1-16c-6.7-3.9-12.7,3.1-13.2,7.8
				c-0.4,3.4,0.1,5.5,0.6,6.9c-0.4-0.4-0.9-0.7-1.3-1C212.8,83,209.7,86,209.7,91.9z"/>
		</g>
		<g class="st22">
			<g>
				<g>
					<path class="st31" d="M323.5,156.7c-0.3,0-0.5-0.2-0.5-0.5v-1.5c0-0.3,0.2-0.5,0.5-0.5c0.3,0,0.5,0.2,0.5,0.5v1.5
						C324,156.5,323.8,156.7,323.5,156.7z"/>
				</g>
				<g>
					<path class="st31" d="M323.5,273.8c-0.3,0-0.5-0.2-0.5-0.5v-2.9c0-0.3,0.2-0.5,0.5-0.5c0.3,0,0.5,0.2,0.5,0.5v2.9
						C324,273.5,323.8,273.8,323.5,273.8z M323.5,267.9c-0.3,0-0.5-0.2-0.5-0.5v-2.9c0-0.3,0.2-0.5,0.5-0.5c0.3,0,0.5,0.2,0.5,0.5
						v2.9C324,267.7,323.8,267.9,323.5,267.9z M323.5,262.1c-0.3,0-0.5-0.2-0.5-0.5v-2.9c0-0.3,0.2-0.5,0.5-0.5
						c0.3,0,0.5,0.2,0.5,0.5v2.9C324,261.8,323.8,262.1,323.5,262.1z M323.5,256.2c-0.3,0-0.5-0.2-0.5-0.5v-2.9
						c0-0.3,0.2-0.5,0.5-0.5c0.3,0,0.5,0.2,0.5,0.5v2.9C324,256,323.8,256.2,323.5,256.2z M323.5,250.3c-0.3,0-0.5-0.2-0.5-0.5v-2.9
						c0-0.3,0.2-0.5,0.5-0.5c0.3,0,0.5,0.2,0.5,0.5v2.9C324,250.1,323.8,250.3,323.5,250.3z M323.5,244.5c-0.3,0-0.5-0.2-0.5-0.5
						v-2.9c0-0.3,0.2-0.5,0.5-0.5c0.3,0,0.5,0.2,0.5,0.5v2.9C324,244.3,323.8,244.5,323.5,244.5z M323.5,238.6
						c-0.3,0-0.5-0.2-0.5-0.5v-2.9c0-0.3,0.2-0.5,0.5-0.5c0.3,0,0.5,0.2,0.5,0.5v2.9C324,238.4,323.8,238.6,323.5,238.6z
						 M323.5,232.8c-0.3,0-0.5-0.2-0.5-0.5v-2.9c0-0.3,0.2-0.5,0.5-0.5c0.3,0,0.5,0.2,0.5,0.5v2.9
						C324,232.6,323.8,232.8,323.5,232.8z M323.5,321.3c-0.3,0-0.5-0.2-0.5-0.5v-2.9c0-0.3,0.2-0.5,0.5-0.5c0.3,0,0.5,0.2,0.5,0.5
						v2.9C324,321.1,323.8,321.3,323.5,321.3z M323.5,315.4c-0.3,0-0.5-0.2-0.5-0.5V312c0-0.3,0.2-0.5,0.5-0.5
						c0.3,0,0.5,0.2,0.5,0.5v2.9C324,315.2,323.8,315.4,323.5,315.4z M323.5,309.6c-0.3,0-0.5-0.2-0.5-0.5v-2.9
						c0-0.3,0.2-0.5,0.5-0.5c0.3,0,0.5,0.2,0.5,0.5v2.9C324,309.4,323.8,309.6,323.5,309.6z M323.5,303.7c-0.3,0-0.5-0.2-0.5-0.5
						v-2.9c0-0.3,0.2-0.5,0.5-0.5c0.3,0,0.5,0.2,0.5,0.5v2.9C324,303.5,323.8,303.7,323.5,303.7z M323.5,297.9
						c-0.3,0-0.5-0.2-0.5-0.5v-2.9c0-0.3,0.2-0.5,0.5-0.5c0.3,0,0.5,0.2,0.5,0.5v2.9C324,297.6,323.8,297.9,323.5,297.9z M323.5,292
						c-0.3,0-0.5-0.2-0.5-0.5v-2.9c0-0.3,0.2-0.5,0.5-0.5c0.3,0,0.5,0.2,0.5,0.5v2.9C324,291.8,323.8,292,323.5,292z M323.5,286.2
						c-0.3,0-0.5-0.2-0.5-0.5v-2.9c0-0.3,0.2-0.5,0.5-0.5c0.3,0,0.5,0.2,0.5,0.5v2.9C324,285.9,323.8,286.2,323.5,286.2z
						 M323.5,280.3c-0.3,0-0.5-0.2-0.5-0.5v-2.9c0-0.3,0.2-0.5,0.5-0.5c0.3,0,0.5,0.2,0.5,0.5v2.9
						C324,280.1,323.8,280.3,323.5,280.3z M323.5,226.9c-0.3,0-0.5-0.2-0.5-0.5v-2.9c0-0.3,0.2-0.5,0.5-0.5c0.3,0,0.5,0.2,0.5,0.5
						v2.9C324,226.7,323.8,226.9,323.5,226.9z M323.5,221.1c-0.3,0-0.5-0.2-0.5-0.5v-2.9c0-0.3,0.2-0.5,0.5-0.5
						c0.3,0,0.5,0.2,0.5,0.5v2.9C324,220.9,323.8,221.1,323.5,221.1z M323.5,215.2c-0.3,0-0.5-0.2-0.5-0.5v-2.9
						c0-0.3,0.2-0.5,0.5-0.5c0.3,0,0.5,0.2,0.5,0.5v2.9C324,215,323.8,215.2,323.5,215.2z M323.5,209.4c-0.3,0-0.5-0.2-0.5-0.5v-2.9
						c0-0.3,0.2-0.5,0.5-0.5c0.3,0,0.5,0.2,0.5,0.5v2.9C324,209.1,323.8,209.4,323.5,209.4z M323.5,203.5c-0.3,0-0.5-0.2-0.5-0.5
						v-2.9c0-0.3,0.2-0.5,0.5-0.5c0.3,0,0.5,0.2,0.5,0.5v2.9C324,203.3,323.8,203.5,323.5,203.5z M323.5,197.7
						c-0.3,0-0.5-0.2-0.5-0.5v-2.9c0-0.3,0.2-0.5,0.5-0.5c0.3,0,0.5,0.2,0.5,0.5v2.9C324,197.4,323.8,197.7,323.5,197.7z
						 M323.5,191.8c-0.3,0-0.5-0.2-0.5-0.5v-2.9c0-0.3,0.2-0.5,0.5-0.5c0.3,0,0.5,0.2,0.5,0.5v2.9
						C324,191.6,323.8,191.8,323.5,191.8z M323.5,186c-0.3,0-0.5-0.2-0.5-0.5v-2.9c0-0.3,0.2-0.5,0.5-0.5c0.3,0,0.5,0.2,0.5,0.5v2.9
						C324,185.7,323.8,186,323.5,186z M323.5,180.1c-0.3,0-0.5-0.2-0.5-0.5v-2.9c0-0.3,0.2-0.5,0.5-0.5c0.3,0,0.5,0.2,0.5,0.5v2.9
						C324,179.9,323.8,180.1,323.5,180.1z M323.5,174.2c-0.3,0-0.5-0.2-0.5-0.5v-2.9c0-0.3,0.2-0.5,0.5-0.5c0.3,0,0.5,0.2,0.5,0.5
						v2.9C324,174,323.8,174.2,323.5,174.2z M323.5,168.4c-0.3,0-0.5-0.2-0.5-0.5V165c0-0.3,0.2-0.5,0.5-0.5c0.3,0,0.5,0.2,0.5,0.5
						v2.9C324,168.2,323.8,168.4,323.5,168.4z M323.5,162.5c-0.3,0-0.5-0.2-0.5-0.5v-2.9c0-0.3,0.2-0.5,0.5-0.5
						c0.3,0,0.5,0.2,0.5,0.5v2.9C324,162.3,323.8,162.5,323.5,162.5z"/>
				</g>
			</g>
			<g>
				<g>
					<path class="st31" d="M311,149.6c-0.3,0-0.5-0.2-0.5-0.5v-1.5c0-0.3,0.2-0.5,0.5-0.5c0.3,0,0.5,0.2,0.5,0.5v1.5
						C311.5,149.4,311.2,149.6,311,149.6z"/>
				</g>
				<g>
					<path class="st31" d="M311,266.7c-0.3,0-0.5-0.2-0.5-0.5v-2.9c0-0.3,0.2-0.5,0.5-0.5c0.3,0,0.5,0.2,0.5,0.5v2.9
						C311.5,266.5,311.2,266.7,311,266.7z M311,260.9c-0.3,0-0.5-0.2-0.5-0.5v-2.9c0-0.3,0.2-0.5,0.5-0.5c0.3,0,0.5,0.2,0.5,0.5v2.9
						C311.5,260.7,311.2,260.9,311,260.9z M311,255c-0.3,0-0.5-0.2-0.5-0.5v-2.9c0-0.3,0.2-0.5,0.5-0.5c0.3,0,0.5,0.2,0.5,0.5v2.9
						C311.5,254.8,311.2,255,311,255z M311,249.2c-0.3,0-0.5-0.2-0.5-0.5v-2.9c0-0.3,0.2-0.5,0.5-0.5c0.3,0,0.5,0.2,0.5,0.5v2.9
						C311.5,248.9,311.2,249.2,311,249.2z M311,243.3c-0.3,0-0.5-0.2-0.5-0.5v-2.9c0-0.3,0.2-0.5,0.5-0.5c0.3,0,0.5,0.2,0.5,0.5v2.9
						C311.5,243.1,311.2,243.3,311,243.3z M311,237.5c-0.3,0-0.5-0.2-0.5-0.5V234c0-0.3,0.2-0.5,0.5-0.5c0.3,0,0.5,0.2,0.5,0.5v2.9
						C311.5,237.2,311.2,237.5,311,237.5z M311,294.2c-0.3,0-0.5-0.2-0.5-0.5v-1.3c0-0.3,0.2-0.5,0.5-0.5c0.3,0,0.5,0.2,0.5,0.5v1.3
						C311.5,293.9,311.2,294.2,311,294.2z M311,290c-0.3,0-0.5-0.2-0.5-0.5v-2.9c0-0.3,0.2-0.5,0.5-0.5c0.3,0,0.5,0.2,0.5,0.5v2.9
						C311.5,289.7,311.2,290,311,290z M311,284.1c-0.3,0-0.5-0.2-0.5-0.5v-2.9c0-0.3,0.2-0.5,0.5-0.5c0.3,0,0.5,0.2,0.5,0.5v2.9
						C311.5,283.9,311.2,284.1,311,284.1z M311,278.2c-0.3,0-0.5-0.2-0.5-0.5v-2.9c0-0.3,0.2-0.5,0.5-0.5c0.3,0,0.5,0.2,0.5,0.5v2.9
						C311.5,278,311.2,278.2,311,278.2z M311,272.4c-0.3,0-0.5-0.2-0.5-0.5V269c0-0.3,0.2-0.5,0.5-0.5c0.3,0,0.5,0.2,0.5,0.5v2.9
						C311.5,272.2,311.2,272.4,311,272.4z M311,231.6c-0.3,0-0.5-0.2-0.5-0.5v-2.9c0-0.3,0.2-0.5,0.5-0.5c0.3,0,0.5,0.2,0.5,0.5v2.9
						C311.5,231.4,311.2,231.6,311,231.6z M311,225.7c-0.3,0-0.5-0.2-0.5-0.5v-2.9c0-0.3,0.2-0.5,0.5-0.5c0.3,0,0.5,0.2,0.5,0.5v2.9
						C311.5,225.5,311.2,225.7,311,225.7z M311,219.9c-0.3,0-0.5-0.2-0.5-0.5v-2.9c0-0.3,0.2-0.5,0.5-0.5c0.3,0,0.5,0.2,0.5,0.5v2.9
						C311.5,219.7,311.2,219.9,311,219.9z M311,214c-0.3,0-0.5-0.2-0.5-0.5v-2.9c0-0.3,0.2-0.5,0.5-0.5c0.3,0,0.5,0.2,0.5,0.5v2.9
						C311.5,213.8,311.2,214,311,214z M311,208.2c-0.3,0-0.5-0.2-0.5-0.5v-2.9c0-0.3,0.2-0.5,0.5-0.5c0.3,0,0.5,0.2,0.5,0.5v2.9
						C311.5,208,311.2,208.2,311,208.2z M311,202.3c-0.3,0-0.5-0.2-0.5-0.5v-2.9c0-0.3,0.2-0.5,0.5-0.5c0.3,0,0.5,0.2,0.5,0.5v2.9
						C311.5,202.1,311.2,202.3,311,202.3z M311,196.5c-0.3,0-0.5-0.2-0.5-0.5v-2.9c0-0.3,0.2-0.5,0.5-0.5c0.3,0,0.5,0.2,0.5,0.5v2.9
						C311.5,196.3,311.2,196.5,311,196.5z M311,190.6c-0.3,0-0.5-0.2-0.5-0.5v-2.9c0-0.3,0.2-0.5,0.5-0.5c0.3,0,0.5,0.2,0.5,0.5v2.9
						C311.5,190.4,311.2,190.6,311,190.6z M311,184.8c-0.3,0-0.5-0.2-0.5-0.5v-2.9c0-0.3,0.2-0.5,0.5-0.5c0.3,0,0.5,0.2,0.5,0.5v2.9
						C311.5,184.5,311.2,184.8,311,184.8z M311,178.9c-0.3,0-0.5-0.2-0.5-0.5v-2.9c0-0.3,0.2-0.5,0.5-0.5c0.3,0,0.5,0.2,0.5,0.5v2.9
						C311.5,178.7,311.2,178.9,311,178.9z M311,173.1c-0.3,0-0.5-0.2-0.5-0.5v-2.9c0-0.3,0.2-0.5,0.5-0.5c0.3,0,0.5,0.2,0.5,0.5v2.9
						C311.5,172.8,311.2,173.1,311,173.1z M311,167.2c-0.3,0-0.5-0.2-0.5-0.5v-2.9c0-0.3,0.2-0.5,0.5-0.5c0.3,0,0.5,0.2,0.5,0.5v2.9
						C311.5,167,311.2,167.2,311,167.2z M311,161.4c-0.3,0-0.5-0.2-0.5-0.5v-2.9c0-0.3,0.2-0.5,0.5-0.5c0.3,0,0.5,0.2,0.5,0.5v2.9
						C311.5,161.1,311.2,161.4,311,161.4z M311,155.5c-0.3,0-0.5-0.2-0.5-0.5v-2.9c0-0.3,0.2-0.5,0.5-0.5c0.3,0,0.5,0.2,0.5,0.5v2.9
						C311.5,155.3,311.2,155.5,311,155.5z"/>
				</g>
			</g>
			<g>
				<g>
					<path class="st31" d="M298.4,147.5c-0.3,0-0.5-0.2-0.5-0.5v-1.5c0-0.3,0.2-0.5,0.5-0.5s0.5,0.2,0.5,0.5v1.5
						C298.9,147.3,298.7,147.5,298.4,147.5z"/>
				</g>
				<g>
					<path class="st31" d="M298.4,233.8c-0.3,0-0.5-0.2-0.5-0.5v-1c0-0.3,0.2-0.5,0.5-0.5s0.5,0.2,0.5,0.5v1
						C298.9,233.6,298.7,233.8,298.4,233.8z M298.4,229.9c-0.3,0-0.5-0.2-0.5-0.5v-2.9c0-0.3,0.2-0.5,0.5-0.5s0.5,0.2,0.5,0.5v2.9
						C298.9,229.7,298.7,229.9,298.4,229.9z M298.4,224c-0.3,0-0.5-0.2-0.5-0.5v-2.9c0-0.3,0.2-0.5,0.5-0.5s0.5,0.2,0.5,0.5v2.9
						C298.9,223.8,298.7,224,298.4,224z M298.4,218.1c-0.3,0-0.5-0.2-0.5-0.5v-2.9c0-0.3,0.2-0.5,0.5-0.5s0.5,0.2,0.5,0.5v2.9
						C298.9,217.9,298.7,218.1,298.4,218.1z M298.4,212.2c-0.3,0-0.5-0.2-0.5-0.5v-2.9c0-0.3,0.2-0.5,0.5-0.5s0.5,0.2,0.5,0.5v2.9
						C298.9,212,298.7,212.2,298.4,212.2z M298.4,206.3c-0.3,0-0.5-0.2-0.5-0.5v-2.9c0-0.3,0.2-0.5,0.5-0.5s0.5,0.2,0.5,0.5v2.9
						C298.9,206.1,298.7,206.3,298.4,206.3z M298.4,200.5c-0.3,0-0.5-0.2-0.5-0.5V197c0-0.3,0.2-0.5,0.5-0.5s0.5,0.2,0.5,0.5v2.9
						C298.9,200.2,298.7,200.5,298.4,200.5z M298.4,194.6c-0.3,0-0.5-0.2-0.5-0.5v-2.9c0-0.3,0.2-0.5,0.5-0.5s0.5,0.2,0.5,0.5v2.9
						C298.9,194.4,298.7,194.6,298.4,194.6z M298.4,188.7c-0.3,0-0.5-0.2-0.5-0.5v-2.9c0-0.3,0.2-0.5,0.5-0.5s0.5,0.2,0.5,0.5v2.9
						C298.9,188.5,298.7,188.7,298.4,188.7z M298.4,182.8c-0.3,0-0.5-0.2-0.5-0.5v-2.9c0-0.3,0.2-0.5,0.5-0.5s0.5,0.2,0.5,0.5v2.9
						C298.9,182.6,298.7,182.8,298.4,182.8z M298.4,176.9c-0.3,0-0.5-0.2-0.5-0.5v-2.9c0-0.3,0.2-0.5,0.5-0.5s0.5,0.2,0.5,0.5v2.9
						C298.9,176.7,298.7,176.9,298.4,176.9z M298.4,171c-0.3,0-0.5-0.2-0.5-0.5v-2.9c0-0.3,0.2-0.5,0.5-0.5s0.5,0.2,0.5,0.5v2.9
						C298.9,170.8,298.7,171,298.4,171z M298.4,165.2c-0.3,0-0.5-0.2-0.5-0.5v-2.9c0-0.3,0.2-0.5,0.5-0.5s0.5,0.2,0.5,0.5v2.9
						C298.9,164.9,298.7,165.2,298.4,165.2z M298.4,159.3c-0.3,0-0.5-0.2-0.5-0.5v-2.9c0-0.3,0.2-0.5,0.5-0.5s0.5,0.2,0.5,0.5v2.9
						C298.9,159.1,298.7,159.3,298.4,159.3z M298.4,153.4c-0.3,0-0.5-0.2-0.5-0.5V150c0-0.3,0.2-0.5,0.5-0.5s0.5,0.2,0.5,0.5v2.9
						C298.9,153.2,298.7,153.4,298.4,153.4z"/>
				</g>
			</g>
			<g>
				<g>
					<path class="st31" d="M285.8,166.7c-0.3,0-0.5-0.2-0.5-0.5v-1.5c0-0.3,0.2-0.5,0.5-0.5c0.3,0,0.5,0.2,0.5,0.5v1.5
						C286.3,166.4,286.1,166.7,285.8,166.7z"/>
				</g>
				<g>
					<path class="st31" d="M285.8,219.7c-0.3,0-0.5-0.2-0.5-0.5v-1.3c0-0.3,0.2-0.5,0.5-0.5c0.3,0,0.5,0.2,0.5,0.5v1.3
						C286.3,219.5,286.1,219.7,285.8,219.7z M285.8,215.4c-0.3,0-0.5-0.2-0.5-0.5v-3c0-0.3,0.2-0.5,0.5-0.5c0.3,0,0.5,0.2,0.5,0.5v3
						C286.3,215.2,286.1,215.4,285.8,215.4z M285.8,209.3c-0.3,0-0.5-0.2-0.5-0.5v-3c0-0.3,0.2-0.5,0.5-0.5c0.3,0,0.5,0.2,0.5,0.5v3
						C286.3,209.1,286.1,209.3,285.8,209.3z M285.8,203.2c-0.3,0-0.5-0.2-0.5-0.5v-3c0-0.3,0.2-0.5,0.5-0.5c0.3,0,0.5,0.2,0.5,0.5v3
						C286.3,203,286.1,203.2,285.8,203.2z M285.8,197.1c-0.3,0-0.5-0.2-0.5-0.5v-3c0-0.3,0.2-0.5,0.5-0.5c0.3,0,0.5,0.2,0.5,0.5v3
						C286.3,196.9,286.1,197.1,285.8,197.1z M285.8,191c-0.3,0-0.5-0.2-0.5-0.5v-3c0-0.3,0.2-0.5,0.5-0.5c0.3,0,0.5,0.2,0.5,0.5v3
						C286.3,190.8,286.1,191,285.8,191z M285.8,184.9c-0.3,0-0.5-0.2-0.5-0.5v-3c0-0.3,0.2-0.5,0.5-0.5c0.3,0,0.5,0.2,0.5,0.5v3
						C286.3,184.7,286.1,184.9,285.8,184.9z M285.8,178.8c-0.3,0-0.5-0.2-0.5-0.5v-3c0-0.3,0.2-0.5,0.5-0.5c0.3,0,0.5,0.2,0.5,0.5v3
						C286.3,178.6,286.1,178.8,285.8,178.8z M285.8,172.8c-0.3,0-0.5-0.2-0.5-0.5v-3c0-0.3,0.2-0.5,0.5-0.5c0.3,0,0.5,0.2,0.5,0.5v3
						C286.3,172.5,286.1,172.8,285.8,172.8z"/>
				</g>
			</g>
			<g>
				<g>
					<path class="st31" d="M273.3,159.8c-0.3,0-0.5-0.2-0.5-0.5v-1.5c0-0.3,0.2-0.5,0.5-0.5c0.3,0,0.5,0.2,0.5,0.5v1.5
						C273.8,159.6,273.5,159.8,273.3,159.8z"/>
				</g>
				<g>
					<path class="st31" d="M273.3,210c-0.3,0-0.5-0.2-0.5-0.5v-3.1c0-0.3,0.2-0.5,0.5-0.5c0.3,0,0.5,0.2,0.5,0.5v3.1
						C273.8,209.7,273.5,210,273.3,210z M273.3,203.7c-0.3,0-0.5-0.2-0.5-0.5v-3.1c0-0.3,0.2-0.5,0.5-0.5c0.3,0,0.5,0.2,0.5,0.5v3.1
						C273.8,203.5,273.5,203.7,273.3,203.7z M273.3,197.4c-0.3,0-0.5-0.2-0.5-0.5v-3.1c0-0.3,0.2-0.5,0.5-0.5c0.3,0,0.5,0.2,0.5,0.5
						v3.1C273.8,197.2,273.5,197.4,273.3,197.4z M273.3,191.2c-0.3,0-0.5-0.2-0.5-0.5v-3.1c0-0.3,0.2-0.5,0.5-0.5
						c0.3,0,0.5,0.2,0.5,0.5v3.1C273.8,190.9,273.5,191.2,273.3,191.2z M273.3,184.9c-0.3,0-0.5-0.2-0.5-0.5v-3.1
						c0-0.3,0.2-0.5,0.5-0.5c0.3,0,0.5,0.2,0.5,0.5v3.1C273.8,184.7,273.5,184.9,273.3,184.9z M273.3,178.6c-0.3,0-0.5-0.2-0.5-0.5
						V175c0-0.3,0.2-0.5,0.5-0.5c0.3,0,0.5,0.2,0.5,0.5v3.1C273.8,178.4,273.5,178.6,273.3,178.6z M273.3,172.4
						c-0.3,0-0.5-0.2-0.5-0.5v-3.1c0-0.3,0.2-0.5,0.5-0.5c0.3,0,0.5,0.2,0.5,0.5v3.1C273.8,172.2,273.5,172.4,273.3,172.4z
						 M273.3,166.1c-0.3,0-0.5-0.2-0.5-0.5v-3.1c0-0.3,0.2-0.5,0.5-0.5c0.3,0,0.5,0.2,0.5,0.5v3.1
						C273.8,165.9,273.5,166.1,273.3,166.1z"/>
				</g>
			</g>
			<g>
				<g>
					<path class="st31" d="M260.7,152.4c-0.3,0-0.5-0.2-0.5-0.5v-1.5c0-0.3,0.2-0.5,0.5-0.5c0.3,0,0.5,0.2,0.5,0.5v1.5
						C261.2,152.2,261,152.4,260.7,152.4z"/>
				</g>
				<g>
					<path class="st31" d="M260.7,176.4c-0.3,0-0.5-0.2-0.5-0.5v-3c0-0.3,0.2-0.5,0.5-0.5c0.3,0,0.5,0.2,0.5,0.5v3
						C261.2,176.2,261,176.4,260.7,176.4z M260.7,170.4c-0.3,0-0.5-0.2-0.5-0.5v-3c0-0.3,0.2-0.5,0.5-0.5c0.3,0,0.5,0.2,0.5,0.5v3
						C261.2,170.2,261,170.4,260.7,170.4z M260.7,164.4c-0.3,0-0.5-0.2-0.5-0.5v-3c0-0.3,0.2-0.5,0.5-0.5c0.3,0,0.5,0.2,0.5,0.5v3
						C261.2,164.2,261,164.4,260.7,164.4z M260.7,158.4c-0.3,0-0.5-0.2-0.5-0.5v-3c0-0.3,0.2-0.5,0.5-0.5c0.3,0,0.5,0.2,0.5,0.5v3
						C261.2,158.2,261,158.4,260.7,158.4z"/>
				</g>
				<g>
					<path class="st31" d="M260.7,200.1c-0.3,0-0.5-0.2-0.5-0.5v-3c0-0.3,0.2-0.5,0.5-0.5c0.3,0,0.5,0.2,0.5,0.5v3
						C261.2,199.9,261,200.1,260.7,200.1z M260.7,206.2c-0.3,0-0.5-0.2-0.5-0.5v-3c0-0.3,0.2-0.5,0.5-0.5c0.3,0,0.5,0.2,0.5,0.5v3
						C261.2,205.9,261,206.2,260.7,206.2z M260.7,194.1c-0.3,0-0.5-0.2-0.5-0.5v-3c0-0.3,0.2-0.5,0.5-0.5c0.3,0,0.5,0.2,0.5,0.5v3
						C261.2,193.9,261,194.1,260.7,194.1z M260.7,188.1c-0.3,0-0.5-0.2-0.5-0.5v-3c0-0.3,0.2-0.5,0.5-0.5c0.3,0,0.5,0.2,0.5,0.5v3
						C261.2,187.9,261,188.1,260.7,188.1z M260.7,182.1c-0.3,0-0.5-0.2-0.5-0.5v-3c0-0.3,0.2-0.5,0.5-0.5c0.3,0,0.5,0.2,0.5,0.5v3
						C261.2,181.9,261,182.1,260.7,182.1z"/>
				</g>
			</g>
			<g>
				<g>
					<path class="st31" d="M235.6,130.5c-0.3,0-0.5-0.2-0.5-0.5v-1.5c0-0.3,0.2-0.5,0.5-0.5s0.5,0.2,0.5,0.5v1.5
						C236.1,130.2,235.9,130.5,235.6,130.5z"/>
				</g>
				<g>
					<path class="st31" d="M235.6,163.9c-0.3,0-0.5-0.2-0.5-0.5v-2.8c0-0.3,0.2-0.5,0.5-0.5s0.5,0.2,0.5,0.5v2.8
						C236.1,163.7,235.9,163.9,235.6,163.9z M235.6,158.3c-0.3,0-0.5-0.2-0.5-0.5V155c0-0.3,0.2-0.5,0.5-0.5s0.5,0.2,0.5,0.5v2.8
						C236.1,158.1,235.9,158.3,235.6,158.3z M235.6,152.8c-0.3,0-0.5-0.2-0.5-0.5v-2.8c0-0.3,0.2-0.5,0.5-0.5s0.5,0.2,0.5,0.5v2.8
						C236.1,152.5,235.9,152.8,235.6,152.8z M235.6,147.2c-0.3,0-0.5-0.2-0.5-0.5v-2.8c0-0.3,0.2-0.5,0.5-0.5s0.5,0.2,0.5,0.5v2.8
						C236.1,147,235.9,147.2,235.6,147.2z M235.6,141.6c-0.3,0-0.5-0.2-0.5-0.5v-2.8c0-0.3,0.2-0.5,0.5-0.5s0.5,0.2,0.5,0.5v2.8
						C236.1,141.4,235.9,141.6,235.6,141.6z M235.6,136c-0.3,0-0.5-0.2-0.5-0.5v-2.8c0-0.3,0.2-0.5,0.5-0.5s0.5,0.2,0.5,0.5v2.8
						C236.1,135.8,235.9,136,235.6,136z"/>
				</g>
				<g>
					<path class="st31" d="M235.6,197.2c-0.3,0-0.5-0.2-0.5-0.5v-2.8c0-0.3,0.2-0.5,0.5-0.5s0.5,0.2,0.5,0.5v2.8
						C236.1,197,235.9,197.2,235.6,197.2z M235.6,191.6c-0.3,0-0.5-0.2-0.5-0.5v-2.8c0-0.3,0.2-0.5,0.5-0.5s0.5,0.2,0.5,0.5v2.8
						C236.1,191.4,235.9,191.6,235.6,191.6z M235.6,186.1c-0.3,0-0.5-0.2-0.5-0.5v-2.8c0-0.3,0.2-0.5,0.5-0.5s0.5,0.2,0.5,0.5v2.8
						C236.1,185.8,235.9,186.1,235.6,186.1z M235.6,180.5c-0.3,0-0.5-0.2-0.5-0.5v-2.8c0-0.3,0.2-0.5,0.5-0.5s0.5,0.2,0.5,0.5v2.8
						C236.1,180.3,235.9,180.5,235.6,180.5z M235.6,212.3c-0.3,0-0.5-0.2-0.5-0.5v-1.2c0-0.3,0.2-0.5,0.5-0.5s0.5,0.2,0.5,0.5v1.2
						C236.1,212.1,235.9,212.3,235.6,212.3z M235.6,208.4c-0.3,0-0.5-0.2-0.5-0.5v-2.8c0-0.3,0.2-0.5,0.5-0.5s0.5,0.2,0.5,0.5v2.8
						C236.1,208.2,235.9,208.4,235.6,208.4z M235.6,202.8c-0.3,0-0.5-0.2-0.5-0.5v-2.8c0-0.3,0.2-0.5,0.5-0.5s0.5,0.2,0.5,0.5v2.8
						C236.1,202.6,235.9,202.8,235.6,202.8z M235.6,174.9c-0.3,0-0.5-0.2-0.5-0.5v-2.8c0-0.3,0.2-0.5,0.5-0.5s0.5,0.2,0.5,0.5v2.8
						C236.1,174.7,235.9,174.9,235.6,174.9z M235.6,169.3c-0.3,0-0.5-0.2-0.5-0.5v-2.8c0-0.3,0.2-0.5,0.5-0.5s0.5,0.2,0.5,0.5v2.8
						C236.1,169.1,235.9,169.3,235.6,169.3z"/>
				</g>
			</g>
			<g>
				<g>
					<path class="st31" d="M223,118.5c-0.3,0-0.5-0.2-0.5-0.5v-1.5c0-0.3,0.2-0.5,0.5-0.5c0.3,0,0.5,0.2,0.5,0.5v1.5
						C223.5,118.3,223.3,118.5,223,118.5z"/>
				</g>
				<g>
					<path class="st31" d="M223,163.9c-0.3,0-0.5-0.2-0.5-0.5v-2.8c0-0.3,0.2-0.5,0.5-0.5c0.3,0,0.5,0.2,0.5,0.5v2.8
						C223.5,163.6,223.3,163.9,223,163.9z M223,158.2c-0.3,0-0.5-0.2-0.5-0.5v-2.8c0-0.3,0.2-0.5,0.5-0.5c0.3,0,0.5,0.2,0.5,0.5v2.8
						C223.5,158,223.3,158.2,223,158.2z M223,152.5c-0.3,0-0.5-0.2-0.5-0.5v-2.8c0-0.3,0.2-0.5,0.5-0.5c0.3,0,0.5,0.2,0.5,0.5v2.8
						C223.5,152.3,223.3,152.5,223,152.5z M223,146.9c-0.3,0-0.5-0.2-0.5-0.5v-2.8c0-0.3,0.2-0.5,0.5-0.5c0.3,0,0.5,0.2,0.5,0.5v2.8
						C223.5,146.6,223.3,146.9,223,146.9z M223,141.2c-0.3,0-0.5-0.2-0.5-0.5v-2.8c0-0.3,0.2-0.5,0.5-0.5c0.3,0,0.5,0.2,0.5,0.5v2.8
						C223.5,141,223.3,141.2,223,141.2z M223,190.8c-0.3,0-0.5-0.2-0.5-0.5v-1.4c0-0.3,0.2-0.5,0.5-0.5c0.3,0,0.5,0.2,0.5,0.5v1.4
						C223.5,190.5,223.3,190.8,223,190.8z M223,186.5c-0.3,0-0.5-0.2-0.5-0.5v-2.8c0-0.3,0.2-0.5,0.5-0.5c0.3,0,0.5,0.2,0.5,0.5v2.8
						C223.5,186.3,223.3,186.5,223,186.5z M223,180.8c-0.3,0-0.5-0.2-0.5-0.5v-2.8c0-0.3,0.2-0.5,0.5-0.5c0.3,0,0.5,0.2,0.5,0.5v2.8
						C223.5,180.6,223.3,180.8,223,180.8z M223,175.2c-0.3,0-0.5-0.2-0.5-0.5v-2.8c0-0.3,0.2-0.5,0.5-0.5c0.3,0,0.5,0.2,0.5,0.5v2.8
						C223.5,174.9,223.3,175.2,223,175.2z M223,169.5c-0.3,0-0.5-0.2-0.5-0.5v-2.8c0-0.3,0.2-0.5,0.5-0.5c0.3,0,0.5,0.2,0.5,0.5v2.8
						C223.5,169.3,223.3,169.5,223,169.5z M223,135.5c-0.3,0-0.5-0.2-0.5-0.5v-2.8c0-0.3,0.2-0.5,0.5-0.5c0.3,0,0.5,0.2,0.5,0.5v2.8
						C223.5,135.3,223.3,135.5,223,135.5z M223,129.8c-0.3,0-0.5-0.2-0.5-0.5v-2.8c0-0.3,0.2-0.5,0.5-0.5c0.3,0,0.5,0.2,0.5,0.5v2.8
						C223.5,129.6,223.3,129.8,223,129.8z M223,124.2c-0.3,0-0.5-0.2-0.5-0.5v-2.8c0-0.3,0.2-0.5,0.5-0.5c0.3,0,0.5,0.2,0.5,0.5v2.8
						C223.5,123.9,223.3,124.2,223,124.2z"/>
				</g>
			</g>
			<g>
				<g>
					<path class="st31" d="M210.5,131.3c-0.3,0-0.5-0.2-0.5-0.5v-1.5c0-0.3,0.2-0.5,0.5-0.5c0.3,0,0.5,0.2,0.5,0.5v1.5
						C211,131.1,210.7,131.3,210.5,131.3z"/>
				</g>
				<g>
					<path class="st31" d="M210.5,186.2c-0.3,0-0.5-0.2-0.5-0.5v-1.5c0-0.3,0.2-0.5,0.5-0.5c0.3,0,0.5,0.2,0.5,0.5v1.5
						C211,186,210.7,186.2,210.5,186.2z"/>
				</g>
				<g>
					<path class="st31" d="M210.5,169.5c-0.3,0-0.5-0.2-0.5-0.5v-3.2c0-0.3,0.2-0.5,0.5-0.5c0.3,0,0.5,0.2,0.5,0.5v3.2
						C211,169.3,210.7,169.5,210.5,169.5z M210.5,163.1c-0.3,0-0.5-0.2-0.5-0.5v-3.2c0-0.3,0.2-0.5,0.5-0.5c0.3,0,0.5,0.2,0.5,0.5
						v3.2C211,162.9,210.7,163.1,210.5,163.1z M210.5,156.8c-0.3,0-0.5-0.2-0.5-0.5v-3.2c0-0.3,0.2-0.5,0.5-0.5
						c0.3,0,0.5,0.2,0.5,0.5v3.2C211,156.5,210.7,156.8,210.5,156.8z M210.5,150.4c-0.3,0-0.5-0.2-0.5-0.5v-3.2
						c0-0.3,0.2-0.5,0.5-0.5c0.3,0,0.5,0.2,0.5,0.5v3.2C211,150.2,210.7,150.4,210.5,150.4z M210.5,144c-0.3,0-0.5-0.2-0.5-0.5v-3.2
						c0-0.3,0.2-0.5,0.5-0.5c0.3,0,0.5,0.2,0.5,0.5v3.2C211,143.8,210.7,144,210.5,144z M210.5,137.7c-0.3,0-0.5-0.2-0.5-0.5V134
						c0-0.3,0.2-0.5,0.5-0.5c0.3,0,0.5,0.2,0.5,0.5v3.2C211,137.5,210.7,137.7,210.5,137.7z"/>
				</g>
				<g>
					<path class="st31" d="M210.5,174.2c-0.3,0-0.5-0.2-0.5-0.5v-1.5c0-0.3,0.2-0.5,0.5-0.5c0.3,0,0.5,0.2,0.5,0.5v1.5
						C211,174,210.7,174.2,210.5,174.2z"/>
				</g>
			</g>
			<g>
				<g>
					<path class="st31" d="M210.5,182.3c-0.3,0-0.5-0.2-0.5-0.5v-3.2c0-0.3,0.2-0.5,0.5-0.5c0.3,0,0.5,0.2,0.5,0.5v3.2
						C211,182.1,210.7,182.3,210.5,182.3z M210.5,175.9c-0.3,0-0.5-0.2-0.5-0.5v-3.2c0-0.3,0.2-0.5,0.5-0.5c0.3,0,0.5,0.2,0.5,0.5
						v3.2C211,175.7,210.7,175.9,210.5,175.9z"/>
				</g>
			</g>
			<g>
				<g>
					<path class="st31" d="M197.9,124.1c-0.3,0-0.5-0.2-0.5-0.5v-1.5c0-0.3,0.2-0.5,0.5-0.5c0.3,0,0.5,0.2,0.5,0.5v1.5
						C198.4,123.8,198.2,124.1,197.9,124.1z"/>
				</g>
				<g>
					<path class="st31" d="M197.9,186.8c-0.3,0-0.5-0.2-0.5-0.5v-3.1c0-0.3,0.2-0.5,0.5-0.5c0.3,0,0.5,0.2,0.5,0.5v3.1
						C198.4,186.6,198.2,186.8,197.9,186.8z M197.9,180.5c-0.3,0-0.5-0.2-0.5-0.5v-3.1c0-0.3,0.2-0.5,0.5-0.5c0.3,0,0.5,0.2,0.5,0.5
						v3.1C198.4,180.3,198.2,180.5,197.9,180.5z M197.9,174.2c-0.3,0-0.5-0.2-0.5-0.5v-3.1c0-0.3,0.2-0.5,0.5-0.5
						c0.3,0,0.5,0.2,0.5,0.5v3.1C198.4,174,198.2,174.2,197.9,174.2z M197.9,168c-0.3,0-0.5-0.2-0.5-0.5v-3.1c0-0.3,0.2-0.5,0.5-0.5
						c0.3,0,0.5,0.2,0.5,0.5v3.1C198.4,167.7,198.2,168,197.9,168z M197.9,161.7c-0.3,0-0.5-0.2-0.5-0.5v-3.1c0-0.3,0.2-0.5,0.5-0.5
						c0.3,0,0.5,0.2,0.5,0.5v3.1C198.4,161.5,198.2,161.7,197.9,161.7z M197.9,155.4c-0.3,0-0.5-0.2-0.5-0.5v-3.1
						c0-0.3,0.2-0.5,0.5-0.5c0.3,0,0.5,0.2,0.5,0.5v3.1C198.4,155.2,198.2,155.4,197.9,155.4z M197.9,149.2c-0.3,0-0.5-0.2-0.5-0.5
						v-3.1c0-0.3,0.2-0.5,0.5-0.5c0.3,0,0.5,0.2,0.5,0.5v3.1C198.4,148.9,198.2,149.2,197.9,149.2z M197.9,142.9
						c-0.3,0-0.5-0.2-0.5-0.5v-3.1c0-0.3,0.2-0.5,0.5-0.5c0.3,0,0.5,0.2,0.5,0.5v3.1C198.4,142.7,198.2,142.9,197.9,142.9z
						 M197.9,136.6c-0.3,0-0.5-0.2-0.5-0.5V133c0-0.3,0.2-0.5,0.5-0.5c0.3,0,0.5,0.2,0.5,0.5v3.1
						C198.4,136.4,198.2,136.6,197.9,136.6z M197.9,130.3c-0.3,0-0.5-0.2-0.5-0.5v-3.1c0-0.3,0.2-0.5,0.5-0.5c0.3,0,0.5,0.2,0.5,0.5
						v3.1C198.4,130.1,198.2,130.3,197.9,130.3z"/>
				</g>
				<g>
					<path class="st31" d="M197.9,191.4c-0.3,0-0.5-0.2-0.5-0.5v-1.5c0-0.3,0.2-0.5,0.5-0.5c0.3,0,0.5,0.2,0.5,0.5v1.5
						C198.4,191.2,198.2,191.4,197.9,191.4z"/>
				</g>
			</g>
			<g>
				<g>
					<path class="st31" d="M185.3,116.8c-0.3,0-0.5-0.2-0.5-0.5v-1.5c0-0.3,0.2-0.5,0.5-0.5c0.3,0,0.5,0.2,0.5,0.5v1.5
						C185.8,116.6,185.6,116.8,185.3,116.8z"/>
				</g>
				<g>
					<path class="st31" d="M185.3,193.7c-0.3,0-0.5-0.2-0.5-0.5v-3c0-0.3,0.2-0.5,0.5-0.5c0.3,0,0.5,0.2,0.5,0.5v3
						C185.8,193.5,185.6,193.7,185.3,193.7z M185.3,187.8c-0.3,0-0.5-0.2-0.5-0.5v-3c0-0.3,0.2-0.5,0.5-0.5c0.3,0,0.5,0.2,0.5,0.5v3
						C185.8,187.6,185.6,187.8,185.3,187.8z M185.3,181.9c-0.3,0-0.5-0.2-0.5-0.5v-3c0-0.3,0.2-0.5,0.5-0.5c0.3,0,0.5,0.2,0.5,0.5v3
						C185.8,181.6,185.6,181.9,185.3,181.9z M185.3,176c-0.3,0-0.5-0.2-0.5-0.5v-3c0-0.3,0.2-0.5,0.5-0.5c0.3,0,0.5,0.2,0.5,0.5v3
						C185.8,175.7,185.6,176,185.3,176z M185.3,170c-0.3,0-0.5-0.2-0.5-0.5v-3c0-0.3,0.2-0.5,0.5-0.5c0.3,0,0.5,0.2,0.5,0.5v3
						C185.8,169.8,185.6,170,185.3,170z M185.3,164.1c-0.3,0-0.5-0.2-0.5-0.5v-3c0-0.3,0.2-0.5,0.5-0.5c0.3,0,0.5,0.2,0.5,0.5v3
						C185.8,163.9,185.6,164.1,185.3,164.1z M185.3,158.2c-0.3,0-0.5-0.2-0.5-0.5v-3c0-0.3,0.2-0.5,0.5-0.5c0.3,0,0.5,0.2,0.5,0.5v3
						C185.8,158,185.6,158.2,185.3,158.2z M185.3,152.3c-0.3,0-0.5-0.2-0.5-0.5v-3c0-0.3,0.2-0.5,0.5-0.5c0.3,0,0.5,0.2,0.5,0.5v3
						C185.8,152.1,185.6,152.3,185.3,152.3z M185.3,146.4c-0.3,0-0.5-0.2-0.5-0.5v-3c0-0.3,0.2-0.5,0.5-0.5c0.3,0,0.5,0.2,0.5,0.5v3
						C185.8,146.2,185.6,146.4,185.3,146.4z M185.3,140.5c-0.3,0-0.5-0.2-0.5-0.5v-3c0-0.3,0.2-0.5,0.5-0.5c0.3,0,0.5,0.2,0.5,0.5v3
						C185.8,140.2,185.6,140.5,185.3,140.5z M185.3,134.6c-0.3,0-0.5-0.2-0.5-0.5v-3c0-0.3,0.2-0.5,0.5-0.5c0.3,0,0.5,0.2,0.5,0.5v3
						C185.8,134.3,185.6,134.6,185.3,134.6z M185.3,128.6c-0.3,0-0.5-0.2-0.5-0.5v-3c0-0.3,0.2-0.5,0.5-0.5c0.3,0,0.5,0.2,0.5,0.5v3
						C185.8,128.4,185.6,128.6,185.3,128.6z M185.3,122.7c-0.3,0-0.5-0.2-0.5-0.5v-3c0-0.3,0.2-0.5,0.5-0.5c0.3,0,0.5,0.2,0.5,0.5v3
						C185.8,122.5,185.6,122.7,185.3,122.7z"/>
				</g>
				<g>
					<path class="st31" d="M185.3,198.2c-0.3,0-0.5-0.2-0.5-0.5v-1.5c0-0.3,0.2-0.5,0.5-0.5c0.3,0,0.5,0.2,0.5,0.5v1.5
						C185.8,197.9,185.6,198.2,185.3,198.2z"/>
				</g>
			</g>
			<g>
				<g>
					<path class="st31" d="M248.1,145c-0.3,0-0.5-0.2-0.5-0.5V143c0-0.3,0.2-0.5,0.5-0.5s0.5,0.2,0.5,0.5v1.5
						C248.6,144.7,248.4,145,248.1,145z"/>
				</g>
				<g>
					<path class="st31" d="M248.1,178.4c-0.3,0-0.5-0.2-0.5-0.5v-2.8c0-0.3,0.2-0.5,0.5-0.5s0.5,0.2,0.5,0.5v2.8
						C248.6,178.2,248.4,178.4,248.1,178.4z M248.1,172.8c-0.3,0-0.5-0.2-0.5-0.5v-2.8c0-0.3,0.2-0.5,0.5-0.5s0.5,0.2,0.5,0.5v2.8
						C248.6,172.6,248.4,172.8,248.1,172.8z M248.1,167.3c-0.3,0-0.5-0.2-0.5-0.5V164c0-0.3,0.2-0.5,0.5-0.5s0.5,0.2,0.5,0.5v2.8
						C248.6,167,248.4,167.3,248.1,167.3z M248.1,161.7c-0.3,0-0.5-0.2-0.5-0.5v-2.8c0-0.3,0.2-0.5,0.5-0.5s0.5,0.2,0.5,0.5v2.8
						C248.6,161.5,248.4,161.7,248.1,161.7z M248.1,156.1c-0.3,0-0.5-0.2-0.5-0.5v-2.8c0-0.3,0.2-0.5,0.5-0.5s0.5,0.2,0.5,0.5v2.8
						C248.6,155.9,248.4,156.1,248.1,156.1z M248.1,150.5c-0.3,0-0.5-0.2-0.5-0.5v-2.8c0-0.3,0.2-0.5,0.5-0.5s0.5,0.2,0.5,0.5v2.8
						C248.6,150.3,248.4,150.5,248.1,150.5z"/>
				</g>
				<g>
					<path class="st31" d="M248.1,204.4c-0.3,0-0.5-0.2-0.5-0.5v-1c0-0.3,0.2-0.5,0.5-0.5s0.5,0.2,0.5,0.5v1
						C248.6,204.1,248.4,204.4,248.1,204.4z M248.1,200.6c-0.3,0-0.5-0.2-0.5-0.5v-2.8c0-0.3,0.2-0.5,0.5-0.5s0.5,0.2,0.5,0.5v2.8
						C248.6,200.3,248.4,200.6,248.1,200.6z M248.1,195c-0.3,0-0.5-0.2-0.5-0.5v-2.8c0-0.3,0.2-0.5,0.5-0.5s0.5,0.2,0.5,0.5v2.8
						C248.6,194.8,248.4,195,248.1,195z M248.1,189.4c-0.3,0-0.5-0.2-0.5-0.5v-2.8c0-0.3,0.2-0.5,0.5-0.5s0.5,0.2,0.5,0.5v2.8
						C248.6,189.2,248.4,189.4,248.1,189.4z M248.1,183.8c-0.3,0-0.5-0.2-0.5-0.5v-2.8c0-0.3,0.2-0.5,0.5-0.5s0.5,0.2,0.5,0.5v2.8
						C248.6,183.6,248.4,183.8,248.1,183.8z"/>
				</g>
			</g>
		</g>
	</g>
</g>
</svg>
