<?xml version="1.0" encoding="UTF-8"?>
<!DOCTYPE svg PUBLIC "-//W3C//DTD SVG 1.1//EN" "http://www.w3.org/Graphics/SVG/1.1/DTD/svg11.dtd">
<!-- Creator: CorelDRAW 2020 (64 Bit) -->
<svg xmlns="http://www.w3.org/2000/svg" xml:space="preserve" width="100px" height="100px" version="1.1" style="shape-rendering:geometricPrecision; text-rendering:geometricPrecision; image-rendering:optimizeQuality; fill-rule:evenodd; clip-rule:evenodd"
viewBox="0 0 2.52 2.52"
 xmlns:xlink="http://www.w3.org/1999/xlink"
 xmlns:xodm="http://www.corel.com/coreldraw/odm/2003">
 <defs>
  <style type="text/css">
   <![CDATA[
    .fil0 {fill:#03A688;fill-rule:nonzero}
    .fil1 {fill:white;fill-rule:nonzero}
   ]]>
  </style>
 </defs>
 <g id="Camada_x0020_1">
  <metadata id="CorelCorpID_0Corel-Layer"/>
  <g id="_2248319768464">
   <path class="fil0" d="M2.52 1.26c0,-0.7 -0.56,-1.26 -1.26,-1.26 -0.7,0 -1.26,0.56 -1.26,1.26 0,0.63 0.46,1.15 1.06,1.25l0 -0.88 -0.32 0 0 -0.37 0.32 0 0 -0.28c0,-0.31 0.19,-0.49 0.48,-0.49 0.14,0 0.28,0.03 0.28,0.03l0 0.31 -0.16 0c-0.15,0 -0.2,0.09 -0.2,0.19l0 0.24 0.35 0 -0.06 0.37 -0.29 0 0 0.88c0.6,-0.1 1.06,-0.62 1.06,-1.25z"/>
   <path class="fil1" d="M1.75 1.63l0.06 -0.37 -0.35 0 0 -0.24c0,-0.1 0.05,-0.19 0.2,-0.19l0.16 0 0 -0.31c0,0 -0.14,-0.03 -0.28,-0.03 -0.29,0 -0.48,0.18 -0.48,0.49l0 0.28 -0.32 0 0 0.37 0.32 0 0 0.88c0.07,0.01 0.13,0.01 0.2,0.01 0.07,0 0.13,0 0.2,-0.01l0 -0.88 0.29 0z"/>
  </g>
 </g>
</svg>
