<?xml version="1.0" encoding="UTF-8"?>
<!DOCTYPE svg PUBLIC "-//W3C//DTD SVG 1.1//EN" "http://www.w3.org/Graphics/SVG/1.1/DTD/svg11.dtd">
<!-- Creator: CorelDRAW 2020 (64 Bit) -->
<svg xmlns="http://www.w3.org/2000/svg" xml:space="preserve" width="100px" height="100px" version="1.1" style="shape-rendering:geometricPrecision; text-rendering:geometricPrecision; image-rendering:optimizeQuality; fill-rule:evenodd; clip-rule:evenodd"
viewBox="0 0 3.03 3.03"
 xmlns:xlink="http://www.w3.org/1999/xlink"
 xmlns:xodm="http://www.corel.com/coreldraw/odm/2003">
 <defs>
  <style type="text/css">
   <![CDATA[
    .fil0 {fill:#03A688;fill-rule:nonzero}
    .fil1 {fill:white;fill-rule:nonzero}
   ]]>
  </style>
 </defs>
 <g id="Camada_x0020_1">
  <metadata id="CorelCorpID_0Corel-Layer"/>
  <g id="_2248306187440">
   <path class="fil0" d="M1.51 0c0.84,0 1.52,0.68 1.52,1.51 0,0.84 -0.68,1.52 -1.52,1.52 -0.83,0 -1.51,-0.68 -1.51,-1.52 0,-0.83 0.68,-1.51 1.51,-1.51z"/>
   <path class="fil1" d="M1.51 0.56c-0.25,0 -0.29,0 -0.39,0.01 -0.1,0 -0.17,0.02 -0.23,0.04 -0.06,0.03 -0.12,0.06 -0.17,0.11 -0.05,0.05 -0.08,0.11 -0.11,0.17 -0.02,0.06 -0.04,0.13 -0.04,0.23 -0.01,0.1 -0.01,0.14 -0.01,0.39 0,0.26 0,0.3 0.01,0.4 0,0.1 0.02,0.17 0.04,0.23 0.03,0.06 0.06,0.12 0.11,0.17 0.05,0.05 0.11,0.08 0.17,0.11 0.06,0.02 0.13,0.04 0.23,0.04 0.1,0.01 0.14,0.01 0.39,0.01 0.26,0 0.3,0 0.4,-0.01 0.1,0 0.17,-0.02 0.23,-0.04 0.06,-0.03 0.12,-0.06 0.17,-0.11 0.05,-0.05 0.08,-0.11 0.11,-0.17 0.02,-0.06 0.04,-0.13 0.04,-0.23 0.01,-0.1 0.01,-0.14 0.01,-0.4 0,-0.25 0,-0.29 -0.01,-0.39 0,-0.1 -0.02,-0.17 -0.04,-0.23 -0.03,-0.06 -0.06,-0.12 -0.11,-0.17 -0.05,-0.05 -0.11,-0.08 -0.17,-0.11 -0.06,-0.02 -0.13,-0.04 -0.23,-0.04 -0.1,-0.01 -0.14,-0.01 -0.4,-0.01l0 0zm0 0.17c0.26,0 0.29,0 0.39,0.01 0.09,0 0.14,0.02 0.18,0.03 0.04,0.02 0.07,0.04 0.11,0.07 0.03,0.04 0.05,0.07 0.07,0.11 0.01,0.04 0.03,0.09 0.03,0.18 0.01,0.1 0.01,0.13 0.01,0.38 0,0.26 0,0.29 -0.01,0.39 0,0.09 -0.02,0.14 -0.03,0.18 -0.02,0.04 -0.04,0.07 -0.07,0.11 -0.04,0.03 -0.07,0.05 -0.11,0.07 -0.04,0.01 -0.09,0.03 -0.18,0.03 -0.1,0.01 -0.13,0.01 -0.39,0.01 -0.25,0 -0.28,0 -0.38,-0.01 -0.09,0 -0.14,-0.02 -0.18,-0.03 -0.04,-0.02 -0.07,-0.04 -0.11,-0.07 -0.03,-0.04 -0.05,-0.07 -0.07,-0.11 -0.01,-0.04 -0.03,-0.09 -0.03,-0.18 -0.01,-0.1 -0.01,-0.13 -0.01,-0.39 0,-0.25 0,-0.28 0.01,-0.38 0,-0.09 0.02,-0.14 0.03,-0.18 0.02,-0.04 0.04,-0.07 0.07,-0.11 0.04,-0.03 0.07,-0.05 0.11,-0.07 0.04,-0.01 0.09,-0.03 0.18,-0.03 0.1,-0.01 0.13,-0.01 0.38,-0.01z"/>
   <path class="fil1" d="M1.51 1.83c-0.17,0 -0.31,-0.14 -0.31,-0.32 0,-0.17 0.14,-0.31 0.31,-0.31 0.18,0 0.32,0.14 0.32,0.31 0,0.18 -0.14,0.32 -0.32,0.32zm0 -0.81c-0.27,0 -0.49,0.22 -0.49,0.49 0,0.28 0.22,0.49 0.49,0.49 0.28,0 0.49,-0.21 0.49,-0.49 0,-0.27 -0.21,-0.49 -0.49,-0.49z"/>
   <path class="fil1" d="M2.14 1.01c0,0.06 -0.05,0.11 -0.12,0.11 -0.06,0 -0.11,-0.05 -0.11,-0.11 0,-0.07 0.05,-0.12 0.11,-0.12 0.07,0 0.12,0.05 0.12,0.12z"/>
  </g>
 </g>
</svg>
