<?xml version="1.0" encoding="UTF-8"?>
<!DOCTYPE svg PUBLIC "-//W3C//DTD SVG 1.1//EN" "http://www.w3.org/Graphics/SVG/1.1/DTD/svg11.dtd">
<!-- Creator: CorelDRAW 2020 (64 Bit) -->
<svg xmlns="http://www.w3.org/2000/svg" xml:space="preserve" width="100px" height="100px" version="1.1" style="shape-rendering:geometricPrecision; text-rendering:geometricPrecision; image-rendering:optimizeQuality; fill-rule:evenodd; clip-rule:evenodd"
viewBox="0 0 2.75 2.75"
 xmlns:xlink="http://www.w3.org/1999/xlink"
 xmlns:xodm="http://www.corel.com/coreldraw/odm/2003">
 <defs>
  <style type="text/css">
   <![CDATA[
    .fil2 {fill:#03A688}
    .fil1 {fill:white}
    .fil0 {fill:#03A688;fill-rule:nonzero}
   ]]>
  </style>
 </defs>
 <g id="Camada_x0020_1">
  <metadata id="CorelCorpID_0Corel-Layer"/>
  <g id="_2248146204384">
   <path class="fil0" d="M2.75 1.38c0,0.76 -0.61,1.37 -1.37,1.37 -0.76,0 -1.38,-0.61 -1.38,-1.37 0,-0.76 0.62,-1.38 1.38,-1.38 0.76,0 1.37,0.62 1.37,1.38z"/>
   <path class="fil1" d="M1.38 0.36c-0.59,0 -1.04,0.43 -1.04,1.01 0,0.3 0.12,0.56 0.32,0.74 0.02,0.02 0.03,0.04 0.03,0.06l0.01 0.19c0,0.05 0.06,0.09 0.11,0.07l0.21 -0.09c0.02,-0.01 0.04,-0.01 0.06,-0.01 0.09,0.03 0.19,0.04 0.3,0.04 0.58,0 1.04,-0.43 1.04,-1 0,-0.58 -0.46,-1.01 -1.04,-1.01z"/>
   <path class="fil2" d="M0.75 1.66l0.31 -0.48c0.05,-0.08 0.15,-0.1 0.22,-0.05l0.25 0.19c0.02,0.01 0.05,0.01 0.07,0l0.33 -0.25c0.04,-0.04 0.1,0.02 0.07,0.06l-0.3 0.49c-0.05,0.07 -0.16,0.09 -0.23,0.04l-0.24 -0.18c-0.03,-0.02 -0.06,-0.02 -0.08,0l-0.33 0.25c-0.04,0.03 -0.1,-0.02 -0.07,-0.07z"/>
  </g>
 </g>
</svg>
