<?xml version="1.0" encoding="UTF-8"?>
<!DOCTYPE svg PUBLIC "-//W3C//DTD SVG 1.1//EN" "http://www.w3.org/Graphics/SVG/1.1/DTD/svg11.dtd">
<!-- Creator: CorelDRAW 2020 (64 Bit) -->
<svg xmlns="http://www.w3.org/2000/svg" xml:space="preserve" width="100px" height="100px" version="1.1" style="shape-rendering:geometricPrecision; text-rendering:geometricPrecision; image-rendering:optimizeQuality; fill-rule:evenodd; clip-rule:evenodd"
viewBox="0 0 4.31 4.31"
 xmlns:xlink="http://www.w3.org/1999/xlink"
 xmlns:xodm="http://www.corel.com/coreldraw/odm/2003">
 <defs>
  <style type="text/css">
   <![CDATA[
    .fil0 {fill:#03A688;fill-rule:nonzero}
    .fil1 {fill:white;fill-rule:nonzero}
   ]]>
  </style>
 </defs>
 <g id="Camada_x0020_1">
  <metadata id="CorelCorpID_0Corel-Layer"/>
  <g id="_2248145857888">
   <path class="fil0" d="M2.16 0c-1.2,0 -2.16,0.97 -2.16,2.16 0,1.19 0.96,2.15 2.16,2.15 1.19,0 2.15,-0.96 2.15,-2.15 0,-1.19 -0.96,-2.16 -2.15,-2.16z"/>
   <path class="fil1" d="M3.2 1.28c0,-0.02 -0.01,-0.03 -0.03,-0.04 -0.03,-0.01 -0.09,0.01 -0.09,0.01 0,0 -2.01,0.72 -2.13,0.8 -0.02,0.02 -0.03,0.03 -0.04,0.04 -0.02,0.06 0.05,0.09 0.05,0.09l0.52 0.16c0,0 0.01,0.01 0.02,0 0.12,-0.07 1.19,-0.75 1.25,-0.77 0.01,0 0.02,0 0.02,0.01 -0.03,0.08 -0.96,0.91 -0.96,0.91 0,0 0,0 0,0.01l0 0 -0.05 0.51c0,0 -0.02,0.16 0.13,0 0.12,-0.11 0.22,-0.2 0.28,-0.25 0.18,0.13 0.37,0.26 0.45,0.33 0.04,0.04 0.08,0.05 0.11,0.05 0.07,-0.01 0.1,-0.09 0.1,-0.09 0,0 0.36,-1.48 0.38,-1.68 0,-0.02 0,-0.03 0,-0.04 0,-0.02 0,-0.04 -0.01,-0.05z"/>
  </g>
 </g>
</svg>
