<?xml version="1.0" encoding="UTF-8"?>
<!DOCTYPE svg PUBLIC "-//W3C//DTD SVG 1.1//EN" "http://www.w3.org/Graphics/SVG/1.1/DTD/svg11.dtd">
<!-- Creator: CorelDRAW 2020 (64 Bit) -->
<svg xmlns="http://www.w3.org/2000/svg" xml:space="preserve" width="100px" height="100px" version="1.1" style="shape-rendering:geometricPrecision; text-rendering:geometricPrecision; image-rendering:optimizeQuality; fill-rule:evenodd; clip-rule:evenodd"
viewBox="0 0 3.79 3.79"
 xmlns:xlink="http://www.w3.org/1999/xlink"
 xmlns:xodm="http://www.corel.com/coreldraw/odm/2003">
 <defs>
  <style type="text/css">
   <![CDATA[
    .fil0 {fill:#03A688}
    .fil1 {fill:white;fill-rule:nonzero}
   ]]>
  </style>
 </defs>
 <g id="Camada_x0020_1">
  <metadata id="CorelCorpID_0Corel-Layer"/>
  <g id="_2248299715616">
   <path class="fil0" d="M3.79 1.9c0,1.04 -0.85,1.89 -1.89,1.89 -1.05,0 -1.9,-0.85 -1.9,-1.89 0,-1.05 0.85,-1.9 1.9,-1.9 1.04,0 1.89,0.85 1.89,1.9z"/>
   <path class="fil1" d="M1.51 2.99c0.93,0 1.44,-0.77 1.44,-1.43 0,-0.03 -0.01,-0.05 -0.01,-0.07 0.1,-0.07 0.19,-0.16 0.26,-0.26 -0.09,0.04 -0.19,0.07 -0.29,0.08 0.1,-0.06 0.18,-0.16 0.22,-0.28 -0.1,0.06 -0.21,0.1 -0.32,0.12 -0.09,-0.1 -0.22,-0.16 -0.37,-0.16 -0.28,0 -0.5,0.23 -0.5,0.51 0,0.04 0,0.08 0.01,0.11 -0.42,-0.02 -0.79,-0.22 -1.04,-0.52 -0.04,0.07 -0.07,0.16 -0.07,0.25 0,0.17 0.09,0.33 0.23,0.42 -0.08,0 -0.16,-0.03 -0.23,-0.06 0,0 0,0 0,0 0,0.25 0.17,0.45 0.4,0.5 -0.04,0.01 -0.08,0.01 -0.13,0.01 -0.03,0 -0.06,0 -0.09,-0.01 0.06,0.2 0.25,0.35 0.47,0.35 -0.18,0.14 -0.39,0.22 -0.63,0.22 -0.04,0 -0.08,0 -0.12,-0.01 0.22,0.14 0.49,0.23 0.77,0.23z"/>
  </g>
 </g>
</svg>
