<?xml version="1.0" encoding="UTF-8"?>
<!DOCTYPE svg PUBLIC "-//W3C//DTD SVG 1.1//EN" "http://www.w3.org/Graphics/SVG/1.1/DTD/svg11.dtd">
<!-- Creator: CorelDRAW 2020 (64 Bit) -->
<svg xmlns="http://www.w3.org/2000/svg" xml:space="preserve" width="100px" height="100px" version="1.1" style="shape-rendering:geometricPrecision; text-rendering:geometricPrecision; image-rendering:optimizeQuality; fill-rule:evenodd; clip-rule:evenodd"
viewBox="0 0 3.37 3.37"
 xmlns:xlink="http://www.w3.org/1999/xlink"
 xmlns:xodm="http://www.corel.com/coreldraw/odm/2003">
 <defs>
  <style type="text/css">
   <![CDATA[
    .fil1 {fill:white}
    .fil0 {fill:#03A688;fill-rule:nonzero}
   ]]>
  </style>
 </defs>
 <g id="Camada_x0020_1">
  <metadata id="CorelCorpID_0Corel-Layer"/>
  <g id="_2248307612784">
   <path class="fil0" d="M3.37 1.68c0,0.93 -0.76,1.69 -1.69,1.69 -0.93,0 -1.68,-0.76 -1.68,-1.69 0,-0.93 0.75,-1.68 1.68,-1.68 0.93,0 1.69,0.75 1.69,1.68z"/>
   <path class="fil1" d="M2.23 1.87c-0.03,-0.01 -0.16,-0.07 -0.19,-0.08 -0.02,-0.01 -0.04,-0.02 -0.06,0.01 -0.01,0.03 -0.07,0.09 -0.08,0.1 -0.02,0.02 -0.03,0.02 -0.06,0.01 -0.03,-0.01 -0.11,-0.04 -0.21,-0.13 -0.08,-0.07 -0.14,-0.16 -0.15,-0.19 -0.02,-0.02 0,-0.04 0.01,-0.05 0.01,-0.01 0.03,-0.03 0.04,-0.05 0.01,-0.01 0.02,-0.02 0.03,-0.04 0,-0.02 0,-0.04 -0.01,-0.05 0,-0.01 -0.06,-0.14 -0.08,-0.2 -0.02,-0.05 -0.04,-0.04 -0.06,-0.04 -0.01,0 -0.03,0 -0.05,0 -0.02,0 -0.05,0 -0.07,0.03 -0.03,0.03 -0.09,0.09 -0.09,0.22 0,0.13 0.09,0.26 0.1,0.28 0.02,0.02 0.19,0.29 0.46,0.4 0.06,0.03 0.11,0.05 0.15,0.06 0.07,0.02 0.12,0.01 0.17,0.01 0.05,-0.01 0.16,-0.07 0.18,-0.13 0.02,-0.06 0.02,-0.11 0.02,-0.13 -0.01,-0.01 -0.03,-0.01 -0.05,-0.03zm-0.49 0.67l0 0c-0.16,0 -0.32,-0.05 -0.45,-0.13l-0.04 -0.02 -0.33 0.09 0.09 -0.32 -0.02 -0.04c-0.09,-0.14 -0.14,-0.3 -0.14,-0.47 0,-0.49 0.4,-0.89 0.89,-0.89 0.24,0 0.46,0.09 0.63,0.26 0.16,0.17 0.26,0.39 0.26,0.63 0,0.49 -0.4,0.89 -0.89,0.89zm0.75 -1.65c-0.2,-0.2 -0.47,-0.31 -0.75,-0.31 -0.59,0 -1.07,0.48 -1.07,1.07 0,0.19 0.05,0.37 0.14,0.53l-0.15 0.56 0.57 -0.15c0.15,0.08 0.33,0.13 0.51,0.13l0 0c0,0 0,0 0,0 0.59,0 1.07,-0.48 1.07,-1.07 0,-0.29 -0.11,-0.55 -0.32,-0.76z"/>
  </g>
 </g>
</svg>
