<?xml-stylesheet href="white_logo.css" type="text/css"?>
<svg xml:space="preserve" width="534px" height="327px" version="1.1" style="shape-rendering:geometricPrecision; text-rendering:geometricPrecision; image-rendering:optimizeQuality; fill-rule:evenodd; clip-rule:evenodd"
viewBox="0 0 20.43 12.5">
 <g id="Camada_x0020_1">
  <g id="_1550443446640">
   <path class="fil0" d="M19.45 5.64c-0.48,-0.85 -2.39,-2.73 -3.45,-1.95 -0.32,0.24 -0.59,0.87 -0.77,1.22 -0.68,1.33 -1.42,2.86 -2.25,4.08 -2.24,3.31 -7.9,4.89 -11.02,1.99 -1.85,-1.72 -2.16,-4.53 -1.86,-6.91 0.49,-3.8 2.89,-4.8 6.35,-3.57 2.86,1.01 4.34,4.61 3.84,7.45 -0.45,2.55 -2.29,3.45 -4.6,2.54 -2.4,-0.95 -2.95,-2.46 -2.13,-4.85 0.35,-1.01 1.23,-1.95 2.39,-1.64 1.33,0.36 1.85,2.15 1.91,3.36 0.03,0.62 -0.15,1.23 -0.78,1.48l-0.2 0.05 0.17 -0.1c0.56,-0.37 0.69,-0.76 0.63,-1.42 -0.09,-1.04 -0.57,-2.64 -1.67,-3.03 -1.03,-0.37 -1.8,0.52 -2.09,1.42 -0.68,2.12 -0.3,3.39 1.84,4.24 1.91,0.75 3.48,0.25 3.93,-1.94 0.53,-2.57 -0.84,-6.02 -3.46,-6.92 -3.03,-1.04 -4.97,-0.31 -5.36,3.03 -0.26,2.13 0.02,4.77 1.75,6.27 2.75,2.38 7.69,0.87 9.58,-1.98 0.96,-1.44 1.7,-3.17 2.52,-4.71 1.44,-2.72 4.63,-0.38 5.65,1.41 0.13,0.25 0.03,0.57 -0.22,0.7 -0.26,0.13 -0.57,0.03 -0.7,-0.22z"/>
  </g>
  <path class="fil1" d="M19.91 5.4c-0.6,-1.14 -3.5,-3.83 -4.75,-1.42 -0.76,1.44 -1.71,3.46 -2.57,4.75 -2.96,4.43 -12.19,5.39 -12.19,-3.13 0,-4.23 1.76,-6.22 5.94,-4.78 5,1.72 5.2,11.68 -0.56,9.44 -2.27,-0.88 -2.81,-2.21 -2.04,-4.56 0.75,-2.27 3.32,-2.28 3.93,0.98 0.18,0.94 0.25,1.81 -0.79,2.21"/>
 </g>
</svg>
