<?xml version="1.0" encoding="UTF-8"?>
<!DOCTYPE svg PUBLIC "-//W3C//DTD SVG 1.1//EN" "http://www.w3.org/Graphics/SVG/1.1/DTD/svg11.dtd">
<!-- Creator: CorelDRAW 2020 (64 Bit) -->
<svg xmlns="http://www.w3.org/2000/svg" xml:space="preserve" width="100px" height="100px" version="1.1" style="shape-rendering:geometricPrecision; text-rendering:geometricPrecision; image-rendering:optimizeQuality; fill-rule:evenodd; clip-rule:evenodd"
viewBox="0 0 4.89 4.89"
 xmlns:xlink="http://www.w3.org/1999/xlink"
 xmlns:xodm="http://www.corel.com/coreldraw/odm/2003">
 <defs>
  <style type="text/css">
   <![CDATA[
    .fil0 {fill:#03A688;fill-rule:nonzero}
    .fil1 {fill:white;fill-rule:nonzero}
   ]]>
  </style>
 </defs>
 <g id="Camada_x0020_1">
  <metadata id="CorelCorpID_0Corel-Layer"/>
  <g id="_2213733256128">
   <path class="fil0" d="M4.89 2.44c0,1.35 -1.1,2.45 -2.45,2.45 -1.35,0 -2.44,-1.1 -2.44,-2.45 0,-1.35 1.09,-2.44 2.44,-2.44 1.35,0 2.45,1.09 2.45,2.44z"/>
   <path class="fil1" d="M2.12 2.93l0 -0.97 0.85 0.48 -0.85 0.49zm1.89 -1.27c-0.04,-0.14 -0.15,-0.25 -0.29,-0.29 -0.26,-0.07 -1.28,-0.07 -1.28,-0.07 0,0 -1.01,0 -1.27,0.07 -0.14,0.04 -0.25,0.15 -0.29,0.29 -0.07,0.25 -0.07,0.78 -0.07,0.78 0,0 0,0.53 0.07,0.79 0.04,0.14 0.15,0.25 0.29,0.29 0.26,0.06 1.27,0.06 1.27,0.06 0,0 1.02,0 1.28,-0.06 0.14,-0.04 0.25,-0.15 0.29,-0.29 0.06,-0.26 0.06,-0.79 0.06,-0.79 0,0 0,-0.53 -0.06,-0.78z"/>
  </g>
 </g>
</svg>
